<?xml version="1.0" encoding="UTF-8"?>
<svg id="Layer_1" data-name="Layer 1" xmlns="http://www.w3.org/2000/svg" xmlns:xlink="http://www.w3.org/1999/xlink" viewBox="0 0 356.92 73.44">
  <defs>
    <style>
      .cls-1, .cls-2 {
        fill: none;
      }

      .cls-3 {
        fill: #fff;
      }

      .cls-2 {
        clip-path: url(#clippath);
      }
    </style>
    <clipPath id="clippath">
      <rect class="cls-1" x="0" y="0" width="356.91" height="73.44"/>
    </clipPath>
  </defs>
  <g class="cls-2">
    <g id="Component_15_1" data-name="Component 15 1">
      <g id="Group_213" data-name="Group 213">
        <path id="Path_69" data-name="Path 69" class="cls-3" d="m109.45,10.35c3.03,2.09,4.83,5.54,4.81,9.22.15,3.49-1.53,6.8-4.42,8.75-1.43,1.09-3.03,1.95-4.74,2.53-.31.15-.16.69.16,1.46,2.68,4.73,5.61,9.32,8.77,13.75,1.71,2.4,3.61,4.65,5.67,6.76,2.48,2.46,4.74,3.15,6.13,3.15.62,0,1.01.23,1.01.46,0,.15-.31.39-.93.62-.96.24-1.96.35-2.95.31-4.74,0-7.84-2.53-10.71-6.07-3.96-4.99-10.48-15.59-11.57-16.9-.61-.81-1.45-1.43-2.41-1.76-1.27-.32-2.58-.42-3.88-.31-.37.01-.68.26-.78.62-.16.77-.24,10.6-.16,13.67-.02,2.34.19,4.68.62,6.99.31.92.85,1.69,3.65,2.15.85.15,1.16.31,1.16.62s-.62.54-1.55.54c-1.63,0-3.11-.39-5.74-.39-2.87,0-5.12.39-6.6.39-.78,0-1.32-.15-1.32-.54,0-.31.54-.46,1.55-.69,2.41-.46,3.26-1.15,3.49-4.38.24-4.38.39-10.14.39-21.27s-.31-14.82-.47-17.28c-.15-2.23-.31-3.3-3.57-3.84-.7-.15-1.32-.31-1.32-.69,0-.23.39-.46,1.4-.46,1.09,0,2.95.31,5.74.31s5.74-.39,8.31-.39c4.66,0,7.68.84,10.25,2.69Zm-15.45-1c-.15.08-.39.08-.47,1.31-.08,1.54-.08,17.81-.08,19.04,0,1.15.31,1.38.54,1.38.7.07,1.4.09,2.1.08,2.26,0,7.07-.62,8.62-1.61,2.87-2.04,4.59-5.31,4.66-8.83,0-4.07-1.24-6.99-3.26-8.83-2.1-1.92-4.89-3.07-9.55-3.07-.88,0-1.75.18-2.56.54h0Z"/>
        <path id="Path_70" data-name="Path 70" class="cls-3" d="m117.5,36.96c0-4.6,1.89-9.13,6.94-12.79,2.89-2.17,6.42-3.32,10.03-3.26,9.16-.17,16.73,7.12,16.9,16.29,0,.12,0,.24,0,.36-.05,6.39-3.85,12.15-9.7,14.72-2.21.98-4.59,1.5-7,1.53-9.38.05-17.05-7.47-17.17-16.86Zm24.17,13.85c2.49-1.93,5.45-6.33,5.45-12.92,0-4.79-1.41-9.13-4.51-12.19-2.38-2.47-5.67-3.84-9.09-3.8-3.03.18-5.87,1.52-7.94,3.73-2.83,2.93-3.71,7.19-3.71,11.52.06,3.86,1.41,7.59,3.84,10.59,3.23,3.8,6.53,4.93,9.96,4.93,2.15.04,4.25-.61,6-1.86h0Z"/>
        <path id="Path_71" data-name="Path 71" class="cls-3" d="m182.14,22.77c.36.15.61.48.67.87-.05,1.4-.03,2.8.07,4.2.07.8-.2,1.33-.4,1.33-.27,0-.33-.33-.47-.8-.35-1.76-1.36-3.31-2.83-4.33-2.3-1.6-5.08-2.38-7.88-2.2-3.55,0-6.96,1.38-9.5,3.86-2.22,2.26-3.97,6.53-3.97,11.39.06,4.22,1.66,8.28,4.51,11.39,2.62,2.55,6.11,4.01,9.77,4.06,3.1,0,4.71-.47,6.19-1.4,1.89-1.19,3.38-2.94,4.24-5,.27-.67.4-.93.67-.93.2,0,.27.53.27,1-.14,1.14-.41,2.26-.81,3.33-.12.6-.4,1.15-.81,1.6-3.15,1.86-6.77,2.79-10.44,2.66-6.6,0-10.1-1.93-13.47-4.93-2.36-2.06-4.58-6.66-4.58-11.39-.02-4.89,2.22-9.51,6.06-12.52,3.47-2.68,7.74-4.11,12.12-4.06,3.61.03,7.18.66,10.58,1.87Z"/>
        <path id="Path_72" data-name="Path 72" class="cls-3" d="m188.83,26.3c0-2.13-.33-3.2-2.56-3.6-.67-.13-1.21-.33-1.21-.6s.67-.4,1.14-.4c.88,0,2.63.2,4.31.2,1.35,0,3.97-.2,4.65-.2.61,0,1.08.07,1.08.33,0,.33-.67.59-1.08.67-1.75.33-2.29,1-2.36,2.6,0,1.07-.13,9.32-.07,9.92.07.47.13.93.47.93h14.07c1.8.07,3.59.05,5.39-.07.4-.07.47-.27.54-.59.13-.73.07-7.12,0-8.86-.14-2.86-.61-3.6-2.49-3.86-.61-.13-1.28-.33-1.28-.59,0-.33.54-.47,1.28-.47,2.29,0,2.49.2,4.65.2,1.68,0,2.83-.2,4.11-.2.94,0,1.35.13,1.35.4,0,.2-.4.47-1.08.53-2.36.33-2.69,1.4-2.69,3.4,0,1.27-.07,8.79,0,12.19.07,3.32.14,8.26.14,9.79,0,2.8.27,3.4,2.97,4,.67.13,1.08.26,1.08.59,0,.27-.47.4-1.15.4-.87,0-3.84-.2-4.92-.2-1.41,0-3.57.2-4.24.2-.95,0-1.35-.13-1.35-.4,0-.33.54-.47,1.01-.59,2.02-.33,2.43-.6,2.63-2.67.07-.87.07-4.93.07-10.32.02-.44-.18-.87-.54-1.13-.94-.13-4.04-.2-10.98-.2h-8.69c-.27,0-.47.33-.47,1,0,10.46.13,11.06.27,11.59.2,1,.81,1.27,2.36,1.66.74.2,1.15.4,1.15.67,0,.4-.87.4-1.21.4-1.01,0-3.16-.2-4.78-.2-1.41,0-3.3.2-4.11.2-.54,0-1.35-.07-1.35-.47,0-.2.67-.47,1.21-.53,2.29-.47,2.36-1.07,2.49-2.47.14-1.4.2-4.66.2-12.39v-10.86Z"/>
        <path id="Path_73" data-name="Path 73" class="cls-3" d="m223.49,22.17c0-.27.4-.47.81-.47,1.34,0,3.16.2,4.44.2,2.9,0,9.16-.13,11.31-.13,1.95,0,3.64-.07,4.11-.07.27,0,.47.47.54.8.07.53.27,2.86.4,3.8.07.53-.07.93-.34.93-.2,0-.4-.33-.6-.8-1.01-2.26-1.89-3.06-2.69-3.2-.87-.13-1.08-.2-9.96-.2-.34,0-.54.13-.54.73,0,2.73-.07,10.32,0,11.79,0,.27.13.53.4.53h5.79c1.48.12,2.97-.06,4.38-.53.34-.2.74-.59,1.28-1.93.13-.4.34-.8.61-.8.2,0,.27.27.27.93,0,.27-.27,2.26-.34,3-.07,1-.07,2,0,3,.07.47-.07,1-.27,1-.27,0-.4-.33-.74-1.13s-.67-1.86-1.48-2c-.81-.2-2.36-.33-9.63-.33-.13,0-.4.2-.4.66-.07,1.6.14,9.72.2,10.72.13,1.86.2,2.73,1.35,2.86.67.07,2.63.2,5.45.2,4.91,0,5.39-.27,6.2-.87.92-.92,1.69-1.98,2.29-3.13.27-.53.54-.87.74-.87.27,0,.34.47,0,1.4-.2.53-1.01,3.32-1.15,4-.14.41-.51.7-.94.73-5.72,0-11.11-.2-15.96-.2-1.75,0-4.04.2-4.64.2s-1.35,0-1.35-.4c0-.27.54-.47,1.08-.53,1.82-.33,2.63-.87,2.76-2.86.2-3.2.2-9.06.2-14.06v-8.86c0-2.66-.81-3.2-2.63-3.6-.61-.13-.87-.33-.87-.6l-.07.07Z"/>
        <path id="Path_74" data-name="Path 74" class="cls-3" d="m254.51,27.7c.12,2.33,1.38,4.44,3.37,5.66,1.95,1.27,3.7,2.4,5.66,3.53,2.02,1.33,5.32,3.67,5.32,7.79,0,5.66-5.25,9.13-10.64,9.13-2.45,0-4.88-.5-7.14-1.46-.67-.2-.81-1.07-1.01-1.86-.07-.87-.27-1.93-.4-3.6-.07-.6,0-1.13.27-1.13s.61.47.87,1.27c.39,1.61,1.29,3.06,2.56,4.13,1.47,1.07,3.24,1.65,5.05,1.66,4.17,0,6.6-2.66,6.6-6.13s-2.02-5.4-6.53-8.06c-3.84-2.26-7.34-5-7.34-9.39,0-2.51,1.2-4.86,3.23-6.33,2.01-1.35,4.38-2.05,6.8-2,1.89.02,3.76.38,5.52,1.07.33.09.58.34.67.67.03,1.25.16,2.5.4,3.73.13.73.07,1.2-.2,1.2s-.47-.33-.67-1c-.39-1.29-1.17-2.43-2.22-3.26-1.25-.97-2.79-1.49-4.38-1.46-3.02-.18-5.62,2.12-5.8,5.14-.01.24-.01.48,0,.72Z"/>
        <path id="Path_75" data-name="Path 75" class="cls-3" d="m294.18,21.9c1.43.11,2.87-.05,4.24-.47.33-.2.67-.4.81-.27s.14.33.07.6c-.33,1.6-.44,3.23-.34,4.86,0,.73-.13,1.27-.4,1.27-.2,0-.4-.47-.47-.8-.21-1.04-.55-2.04-1.01-3-.4-.53-.54-.8-2.22-.8h-7.88c-.27,0-.4.6-.4.87l-.13,17.52c0,2.93,0,6.46.2,7.99.2,1.47.94,2,2.69,2.33.74.13,1.15.4,1.15.66s-.81.4-1.28.4c-1.61,0-2.76-.27-4.78-.27-2.76,0-3.97.27-4.78.27-.95,0-1.28-.2-1.28-.4,0-.27.47-.47,1.14-.6,2.49-.33,2.83-.93,2.9-3.46.2-4.99.34-23.91.34-24.44,0-.27-.07-.8-.34-.87h-4.24c-2.22,0-3.84.07-4.51.13-1.01.13-1.82.8-2.36,3.46-.14.59-.34.93-.54.93-.27,0-.4-.4-.4-1,0-1.07.54-3.32.54-5.06-.03-.26.05-.52.2-.73.2-.13.34,0,.61.27.52.26,1.1.4,1.69.4.74.07,6.19.2,11.72.2h9.09Z"/>
        <path id="Path_76" data-name="Path 76" class="cls-3" d="m301.46,22.17c0-.27.4-.47.81-.47,1.35,0,3.16.2,4.44.2,2.89,0,9.16-.13,11.31-.13,1.95,0,3.63-.07,4.11-.07.27,0,.47.47.54.8.07.53.27,2.86.4,3.8.07.53-.07.93-.34.93-.2,0-.4-.33-.61-.8-1.01-2.26-1.89-3.06-2.69-3.2-.87-.13-1.08-.2-9.97-.2-.34,0-.54.13-.54.73,0,2.73-.07,10.32,0,11.79,0,.27.13.53.4.53h5.79c1.48.12,2.97-.06,4.38-.53.33-.2.74-.59,1.28-1.93.13-.4.34-.8.61-.8.2,0,.27.27.27.93,0,.27-.27,2.26-.33,3-.07,1-.07,2,0,3,.07.47-.07,1-.27,1-.27,0-.4-.33-.74-1.13-.34-.8-.67-1.86-1.48-2-.81-.2-2.36-.33-9.63-.33-.14,0-.4.2-.4.66-.07,1.6.14,9.72.2,10.72.13,1.86.2,2.73,1.35,2.86.67.07,2.62.2,5.45.2,4.92,0,5.38-.27,6.2-.87.91-.92,1.69-1.98,2.29-3.13.27-.53.54-.87.74-.87.27,0,.34.47,0,1.4-.2.53-1.01,3.32-1.15,4-.14.41-.51.7-.94.73-5.72,0-11.11-.2-15.96-.2-1.75,0-4.04.2-4.64.2s-1.35,0-1.35-.4c0-.27.54-.47,1.08-.53,1.82-.33,2.63-.87,2.76-2.86.2-3.2.2-9.06.2-14.06v-8.86c0-2.66-.81-3.2-2.63-3.6-.61-.13-.88-.33-.88-.6l-.06.07Z"/>
        <path id="Path_77" data-name="Path 77" class="cls-3" d="m333.89,45.08c-.06,1.69.03,3.39.27,5.06.07,1.07.88,1.6,2.36,1.87.47.07,1.08.26,1.08.53s-.61.47-1.21.47c-1.15,0-3.16-.2-5.05-.2s-2.9.2-3.9.2c-.81,0-1.15-.2-1.15-.4,0-.27.4-.47,1.15-.59,1.89-.33,2.43-.87,2.56-2.67.2-2.8.2-6.26.2-13.39s0-9.46-.07-10.79c-.07-1.47-.54-2.2-2.63-2.53-.54-.07-1.01-.33-1.01-.53,0-.27.61-.4,1.01-.4.74,0,2.02.2,3.84.2,2.36,0,4.65-.27,7-.27,2.58-.18,5.16.47,7.34,1.87,2,1.21,3.23,3.38,3.23,5.73,0,4-2.76,6.39-6.13,7.46-.4.13-.4.33-.13.87,1.8,3,3.78,5.89,5.93,8.66,1.14,1.5,2.4,2.91,3.77,4.2,1.11,1.11,2.6,1.78,4.17,1.86.61,0,.47.4,0,.67-.81.33-1.69.47-2.56.4-3.5,0-5.18-1.53-7.41-3.86-2.63-2.8-6.4-8.73-7.54-10.26-.62-.58-1.39-.97-2.22-1.13-.81-.09-1.61-.13-2.42-.13-.27,0-.47.47-.47.93v6.19Zm.61-21.98c-.13.07-.34.4-.4,1.33-.07.8-.2,10.66-.2,11.46,0,.27.13,1,.47,1,.81.07,1.89.07,2.97.07,1.67-.02,3.32-.46,4.78-1.27,1.88-1.17,3-3.25,2.96-5.46.03-1.83-.62-3.61-1.82-5-1.59-1.68-3.82-2.6-6.13-2.53-.89,0-1.78.14-2.64.4h0Z"/>
      </g>
      <g id="Group_216" data-name="Group 216">
        <g id="Group_214" data-name="Group 214">
          <path id="Path_78" data-name="Path 78" class="cls-3" d="m301.9,7.65c.02,1.86-.81,3.62-2.25,4.8-.56.4-1.22.64-1.91.68-1.53,0-2.38-1.61-2.36-2.95.05-1.75.85-3.4,2.19-4.53.6-.41,1.3-.66,2.02-.74,1.37.1,2.41,1.29,2.31,2.66,0,.03,0,.05,0,.08Zm-3.82-.7c-.75,1.22-1.17,2.61-1.23,4.04,0,.71.3,1.23,1,1.23.34,0,.7-.21,1.25-.98.78-1.27,1.26-2.71,1.4-4.2,0-.62-.19-1.28-.92-1.28-.34,0-.89.21-1.49,1.2h0Z"/>
          <path id="Path_79" data-name="Path 79" class="cls-3" d="m309.04,5.12c.36-.02.44.09.44.21,0,.17-.19.57-.44.62-.19.04-1.08.08-1.46.09-.11,0-.43.09-.49.3-.89,4.19-1.47,6.41-1.85,7.8-.5,1.85-2.07,3.21-3.97,3.46-.45,0-1.31-.36-1.31-.98,0-.34.13-.67.38-.91.09-.04.55-.15.64-.06.36.41.83.69,1.36.81.45,0,.83-.13,1.23-1.64.55-2.08,1.79-7.77,1.95-8.52,0-.07-.04-.23-.13-.23l-1.23.04c-.08,0-.21-.15-.21-.24.03-.25.18-.48.4-.6.15-.02.91-.06,1.23-.08.13,0,.23-.19.26-.23.41-1.72,1.38-3.26,2.76-4.38.5-.34,1.08-.54,1.68-.59,1.25,0,1.78.68,1.78,1.36,0,.33-.15.64-.4.85-.16.11-.34.17-.53.19-.09,0-.34-.12-.36-.26-.09-.79-.4-1.28-1.11-1.28-.42.08-.79.34-1,.71-.59,1.08-1,2.25-1.23,3.46-.02.08.12.17.13.17l1.47-.07Z"/>
        </g>
        <g id="Group_215" data-name="Group 215">
          <path id="Path_80" data-name="Path 80" class="cls-3" d="m134.14,1.15c.93,0,1.44.15,2.67.15.99,0,1.5-.06,2.28-.06.63,0,.87.18.87.33,0,.21-.12.39-.81.54-.87.18-1.35.36-1.35,1.5-.03,1.71,0,3.82.03,5.74-.04,1.35.45,2.66,1.38,3.64.78.54,1.7.84,2.64.87,1.92,0,3.54-.51,3.88-4.12.15-2.16.12-5.62.12-5.98-.09-.96-.24-1.5-1.65-1.74-.33-.06-.63-.24-.63-.45,0-.27.39-.33.78-.33.75,0,.66.06,1.41.06,1.2,0,2.26-.15,2.91-.15.45,0,.69.21.69.3,0,.3-.3.42-.69.51-1.11.27-1.44.63-1.47,1.86-.03.84-.15,2.47-.21,4.27-.06,2.49-.57,4.81-2.16,6.07-1.03.81-2.32,1.23-3.64,1.17-1.39.05-2.75-.38-3.85-1.23-1.26-1.05-1.92-2.55-1.92-6.22,0-.81-.03-4.24-.09-4.78-.03-.3-.12-.84-1.32-1.11-.36-.09-.69-.33-.69-.47,0-.28.33-.37.81-.37Z"/>
          <path id="Path_81" data-name="Path 81" class="cls-3" d="m152.2,1.18c.69,0,2.7.18,3.39.18.24,0,.39.12.6.39.57.72,1.23,1.38,2.02,2.28.81.93,4.72,5.17,6.25,6.79.06.04.14.03.19-.03.02-.03.03-.06.02-.09.03-1.65.18-5.59.03-7.03-.09-.87-.42-1.35-1.86-1.68-.24-.09-.63-.21-.63-.47,0-.33.63-.33.72-.33,1.02,0,1.8.12,2.55.12.6,0,1.35-.12,2.1-.12.3,0,.63.12.63.33s-.15.3-.63.47c-1.17.33-1.41.72-1.53,1.89-.12,1.14-.27,4.99-.27,6.73s.09,3.67.09,3.88c0,.48-.12.81-.39.81-.33-.07-.65-.22-.9-.45-.51-.6-1.68-2.19-3.33-3.97-1.38-1.5-3.48-4.09-5.26-5.95-.05-.07-.15-.07-.22-.02-.04.03-.06.09-.05.14-.03,1.02-.18,5.38-.03,7.36.09.96.78,1.38,1.68,1.68.33.12.54.24.54.45,0,.3-.42.39-.69.39-.09,0-1.02-.09-1.86-.09-.75,0-2.02.18-2.67.18-.39,0-.72-.09-.72-.39,0-.15.12-.27.69-.42,1.44-.36,1.62-.9,1.71-1.65.06-.75.24-3.58.24-6.22,0-1.41-.03-2.22-.06-2.46-.22-.57-.59-1.07-1.08-1.44-.36-.26-.79-.42-1.23-.47-.54-.09-.78-.24-.78-.48,0-.12.36-.31.75-.31Z"/>
          <path id="Path_82" data-name="Path 82" class="cls-3" d="m172.11,1.21c.24.03,2.34.09,3.21.09.97,0,1.95-.07,2.91-.18.21-.03.66.18.66.33,0,.21-.39.48-.75.54-1.44.42-1.56.66-1.62,1.74-.06.66-.06,2.19-.06,4.15,0,1.71,0,3.25.03,3.88.06,1.71.27,1.98,1.68,2.31.36.09.69.33.69.6,0,.21-.3.27-.6.27-.84,0-1.65-.09-2.94-.09-.87,0-2.46.15-3.03.15-.45,0-.72-.12-.72-.33,0-.27.45-.47.72-.57,1.44-.36,1.71-.69,1.77-1.83.03-.54.06-1.47.06-2.47,0-3.16,0-5.26-.03-5.74-.09-1.29-.6-1.68-1.77-2.02-.54-.18-.63-.39-.63-.57,0-.12.09-.29.42-.26Z"/>
          <path id="Path_83" data-name="Path 83" class="cls-3" d="m182.71,1.15c.57,0,1.77.15,2.73.15.9,0,1.77-.09,2.46-.09.6,0,.78.18.78.36s-.21.33-.69.47c-1.17.24-1.11.75-.84,1.44.39.96.84,2.19,1.47,3.73.51,1.35,1.1,2.66,1.77,3.94.12.12.24.27.36-.06.36-.84,2.34-5.71,2.83-7.09.45-1.35.39-1.68-.81-1.98-.27-.09-.63-.3-.63-.47,0-.09.24-.33.72-.33.81,0,1.2.09,1.95.09,1.05,0,1.98-.15,2.46-.15.33,0,.66.09.66.3,0,.3-.36.42-.78.54-.96.24-1.53.72-2.28,2.14-.69,1.23-1.47,3.3-2.43,5.44-1.44,3.18-1.92,4.72-2.07,5.08-.12.36-.54.81-.78.81-.21,0-.39-.33-.45-.6-.3-1.07-.67-2.13-1.11-3.15-.69-1.59-2.79-6.61-3.69-8.38-.35-.73-1.04-1.23-1.83-1.35-.27-.09-.66-.24-.66-.45,0-.3.45-.36.88-.36Z"/>
          <path id="Path_84" data-name="Path 84" class="cls-3" d="m206.71,7.43c1.29,0,1.44-.15,1.86-1.17.15-.27.36-.6.57-.6.24,0,.27.3.27.69,0,.21-.09.6-.09,1.38,0,.87.09.96.09,1.59,0,.66-.18.84-.42.84-.18,0-.33-.24-.47-.6-.27-.6-.39-.87-.66-.99-.86-.13-1.74-.17-2.61-.12-.09,0-.24.21-.3.42-.11,1.43-.09,2.87.06,4.3.13.19.31.36.51.47.58.22,1.19.33,1.8.33.65.01,1.29-.05,1.92-.18.93-.27,1.29-.42,2.16-1.77.24-.39.42-.6.6-.6.3,0,.3.51.3.66-.15.91-.42,1.8-.81,2.64-.12.21-.3.27-.96.27-2.82,0-2.79-.15-6.91-.15-.96,0-1.98.15-2.7.15-.39,0-.9-.09-.9-.39,0-.27.36-.42.69-.51,1.68-.39,1.74-.75,1.83-1.8.06-.81.09-2.76.09-4.72,0-1.38,0-2.92-.06-4.21-.03-.63-.21-1.05-1.47-1.35-.36-.09-.72-.24-.72-.51,0-.21.33-.33.81-.33.54,0,1.5.12,2.64.12,5.77,0,5.89.03,6.61-.12.17-.01.32.1.36.27,0,.87.21,2.14.21,2.55,0,.36-.21.54-.3.54-.15,0-.39-.12-.63-.6-.54-1.11-.9-1.5-1.83-1.62-.99-.1-1.98-.14-2.98-.12-.12,0-.24.27-.27.39-.1,1.47-.12,2.94-.06,4.42,0,.15.12.3.36.36.47.05.94.07,1.41.07Z"/>
          <path id="Path_85" data-name="Path 85" class="cls-3" d="m215.84,1.28h1.68c.72,0,1.89-.12,4.39-.12,1.4-.14,2.79.26,3.91,1.11.69.59,1.09,1.46,1.08,2.37-.02,1.56-1.08,2.91-2.58,3.31-.06.03-.15.15-.12.18.85,1.6,1.86,3.1,3.03,4.48.65.78,1.52,1.36,2.49,1.65.45.09.54.15.54.42,0,.36-.69.54-1.8.54-1.44-.02-2.78-.71-3.64-1.86-.54-.6-2.22-3.31-2.7-4.03-.47-.51-1.14-.81-1.83-.81-.18,0-.35.08-.48.21-.07.06-.11.15-.12.24,0,.63.03,2.22.09,3.85.03.9.54,1.02,1.32,1.26.24.06.6.21.6.45,0,.36-.51.42-.81.42-.96,0-1.59-.09-2.34-.09-.93,0-1.86.21-2.79.21-.51,0-.81-.15-.81-.36,0-.18.24-.42.75-.54,1.35-.33,1.56-.6,1.62-1.92.03-.6.15-3.21.15-6.04,0-1.29.03-2.04-.03-2.76-.06-.63-.09-1.11-1.59-1.35-.45-.09-.75-.27-.75-.48s.36-.34.75-.34Zm4.24.9c-.19.09-.3.28-.3.48,0,.3-.09,4.51-.09,4.78-.01.17.12.32.29.33,0,0,.01,0,.02,0,1.1.04,2.21-.13,3.24-.51.76-.53,1.23-1.39,1.26-2.31,0-1.26-.96-2.92-3.57-2.92-.29,0-.57.05-.84.15h0Z"/>
          <path id="Path_86" data-name="Path 86" class="cls-3" d="m241.46,1.31c.21.03.3.39.3.72.02.65.02,1.3-.03,1.95-.09.57-.33.66-.42.66-.27,0-.39-.36-.47-.72-.15-.65-.51-1.24-1.02-1.68-.52-.39-1.15-.61-1.8-.6-1.31-.08-2.44.91-2.52,2.22,0,.04,0,.08,0,.12.15,1.08.86,1.99,1.86,2.4.96.54,1.77.93,2.64,1.44,1.36.65,2.24,2.01,2.28,3.51-.05,1.26-.73,2.41-1.8,3.06-1.01.59-2.16.91-3.33.93-1.33.08-2.65-.25-3.79-.93-.19-.15-.31-.38-.33-.63-.03-.36-.27-1.8-.27-2.26,0-.57.21-.81.42-.81.27,0,.36.33.48.66.19.49.42.96.69,1.41.71,1.04,1.87,1.68,3.12,1.71,1.27.1,2.38-.84,2.49-2.11,0-.04,0-.08,0-.11,0-1.17-.63-1.8-1.74-2.49-.9-.54-1.71-.96-2.37-1.38-1.4-.72-2.33-2.1-2.46-3.67,0-2.26,1.86-3.91,4.87-3.91,1.08.05,2.16.21,3.21.48Z"/>
          <path id="Path_87" data-name="Path 87" class="cls-3" d="m247.17,1.21c.24.03,2.34.09,3.21.09.97,0,1.95-.07,2.91-.18.21-.03.66.18.66.33,0,.21-.39.48-.75.54-1.44.42-1.56.66-1.62,1.74-.06.66-.06,2.19-.06,4.15,0,1.71,0,3.25.03,3.88.06,1.71.27,1.98,1.68,2.31.36.09.69.33.69.6,0,.21-.3.27-.6.27-.84,0-1.65-.09-2.94-.09-.87,0-2.46.15-3.03.15-.45,0-.72-.12-.72-.33,0-.27.45-.47.72-.57,1.44-.36,1.71-.69,1.77-1.83.03-.54.06-1.47.06-2.47,0-3.16,0-5.26-.03-5.74-.09-1.29-.6-1.68-1.77-2.02-.54-.18-.63-.39-.63-.57,0-.12.09-.29.42-.26Z"/>
          <path id="Path_88" data-name="Path 88" class="cls-3" d="m267.08,1.31c3.4,0,3.66-.21,4.42-.69.12-.06.45.09.45.45-.02.97.01,1.95.09,2.92,0,.42-.27.66-.42.66-.21,0-.39-.21-.48-.54-.54-1.56-1.02-1.65-1.65-1.68-1.09-.03-2.19,0-3.27.09-.12,0-.21.27-.24.42-.06.45-.06,3.79-.06,6.85-.05,1.06.02,2.11.21,3.16.18.69.45.81,1.68,1.14.54.12.75.3.75.51s-.42.39-.81.39c-1.26,0-1.56-.12-3-.12-.78,0-2.4.15-3.16.15-.42,0-.75-.18-.75-.42s.45-.39.84-.48c1.68-.42,1.71-.78,1.77-1.95.09-2.64.18-5.77.18-9.25,0-.06-.12-.33-.3-.36-1.01-.14-2.02-.2-3.03-.18-.57.06-.99.33-1.5,1.14-.36.54-.45.81-.69.81s-.36-.36-.36-.6c.03-.57.36-1.98.36-2.71.01-.26.2-.48.45-.54.21,0,.42.24.54.36.27.24.9.48,4.06.48h3.93Z"/>
          <path id="Path_89" data-name="Path 89" class="cls-3" d="m275.64,1.15c.6,0,2.07.15,2.97.15,1.02,0,1.47-.09,2.1-.09.36,0,.69.15.69.33,0,.24-.3.45-.66.54-.87.21-.81.63-.6,1.11.24.63,1.56,2.95,2.52,4.66.09.08.21.08.3,0,.15-.27,2.19-3.82,2.64-4.81.3-.6.21-.75-.66-1.02-.54-.15-.63-.3-.63-.47s.27-.33.72-.33c.75,0,.81.09,1.68.09.47,0,2.19-.12,2.37-.12.27,0,.72.09.72.3,0,.33-.48.51-.72.54-1.41.24-1.65.63-2.58,1.8-1.1,1.52-2.09,3.13-2.94,4.81-.18.34-.26.73-.24,1.11-.03.66-.03,2.4.03,3.1.09.72.45.99,1.44,1.23.47.12.84.21.84.47,0,.21-.24.39-.78.39-1.14,0-1.11-.09-2.26-.09-.84,0-2.37.15-3.45.15-.51,0-.78-.09-.78-.39,0-.12.21-.33.6-.42,1.56-.33,1.89-.69,1.92-1.2.03-.57.09-2.4.09-2.88.04-.42-.03-.85-.21-1.23-.82-1.72-1.77-3.38-2.85-4.96-.84-1.26-1.11-1.62-2.34-1.95-.45-.12-.66-.3-.66-.51,0-.12.27-.3.72-.3Z"/>
        </g>
      </g>
      <path id="Path_90" data-name="Path 90" class="cls-3" d="m49.22,11.04c-5.27,0-9.54,4.26-9.54,9.53,0,4.41,3.01,8.24,7.29,9.28.71.02,1.41.05,2.1.07.08,0,.15,0,.23,0,.51.02,1.01.04,1.51.06,5.19-.88,8.69-5.8,7.82-10.99-.77-4.59-4.75-7.95-9.4-7.95h0Zm5.5,14.17c-.28,1.08-.69,2.13-1.22,3.12h-8.57c-.53-.99-.93-2.03-1.22-3.12-.08-.32-.85-3.1.17-4.91.58-.97.92-2.08.97-3.21v-1.92h-.32v.42c-.1.08-.23.13-.36.13-.49-.13-.79-.65-.65-1.14.09-.32.33-.57.65-.65.13,0,.26.05.36.13v.42h.32v-1.74h1.73v1.74h.95v-.07c0-.14.11-.25.25-.25s.25.11.25.25v.07h.95v-.07c0-.14.11-.25.25-.25s.25.11.25.25v.07h.95v-.07c0-.14.11-.25.25-.25s.25.11.25.25v.07h.95v-1.74h1.73v1.74h.32v-.42c.1-.08.23-.13.36-.13.49.13.79.65.65,1.14-.09.32-.33.57-.65.65-.13,0-.26-.05-.36-.13v-.42h-.32v1.92c.05,1.14.39,2.24.97,3.21,1,1.81.23,4.6.15,4.91Zm-20.75-16c.05.09.12.18.2.26.08.08.16.15.26.2.1.06.21.1.32.13.12.03.24.05.37.05.13,0,.26-.01.39-.04.12-.03.25-.07.36-.12.12-.05.23-.12.33-.19.11-.08.21-.17.31-.27.09-.1.17-.2.24-.32.06-.11.11-.23.14-.36.03-.13.05-.27.05-.4,0-.11-.01-.22-.04-.33-.02-.1-.06-.2-.11-.29-.05-.1-.11-.19-.18-.27-.08-.09-.16-.18-.25-.26-.11-.08-.23-.16-.33-.25,0,0,.24-.19.33-.29.09-.09.17-.19.23-.3.06-.1.11-.21.14-.32.03-.12.05-.24.05-.36,0-.12-.02-.24-.05-.35-.03-.11-.09-.21-.15-.3-.07-.09-.15-.17-.25-.24-.1-.07-.21-.12-.33-.15-.13-.04-.26-.05-.4-.05-.15,0-.29.02-.44.06-.13.03-.26.09-.38.15-.11.07-.22.15-.31.24-.18.18-.32.4-.39.65-.03.12-.05.25-.05.38,0,.12.02.25.05.37.03.12.08.23.14.34.07.11.15.21.24.31.1.1.34.25.34.28,0,0-.25.15-.36.24-.1.07-.19.16-.28.25-.07.08-.14.17-.19.27-.05.09-.09.19-.12.3-.03.11-.04.22-.04.33,0,.12.01.23.04.34.03.11.07.22.13.32Zm.9-4.08c.04-.09.11-.16.19-.22.08-.05.18-.08.28-.08.11,0,.22.04.31.11.09.08.17.19.21.3.05.14.08.29.08.44,0,.11,0,.22-.03.32-.02.09-.05.18-.1.27-.04.08-.14.23-.18.24-.06,0-.26-.18-.37-.26-.1-.08-.18-.16-.26-.26-.07-.08-.12-.17-.16-.26-.03-.09-.05-.19-.05-.28,0-.11.02-.22.07-.32h0Zm-.14,2.87c.03-.12.08-.23.15-.34.07-.1.19-.28.24-.28.07,0,.29.2.41.3.11.08.2.18.29.28.07.09.13.19.17.29.04.1.06.21.06.33,0,.15-.03.29-.09.42-.05.12-.13.22-.24.29-.1.07-.21.11-.33.11-.1,0-.2-.02-.29-.07-.09-.05-.17-.12-.23-.2-.07-.1-.12-.21-.15-.32-.04-.14-.06-.28-.05-.42,0-.13.02-.26.06-.39h0Zm-9.82,6.94c-.22-.01-.43.03-.63.13-.44.19-.91.31-1.38.35-.59.06-1.18.04-1.76-.04v8.49c.55.09,1.11.11,1.67.05,1.28-.14,1.1-.46,2.09-.47.22,0,.45.03.66.1v-8.46c-.13-.06-.28-.1-.42-.12-.08-.01-.15-.02-.23-.02h0Zm13.75-5.26c.13-.04.27-.09.4-.14.12-.05.24-.11.35-.18.1-.07.2-.14.3-.22.09-.08.17-.16.25-.25.07-.09.14-.18.19-.28.06-.1.1-.2.14-.31.04-.11.07-.22.09-.33.02-.12.03-.24.03-.36,0-.13-.01-.27-.03-.4-.02-.12-.06-.23-.1-.34-.04-.1-.1-.19-.17-.28-.07-.08-.15-.16-.24-.22-.1-.06-.2-.12-.31-.15-.12-.04-.25-.07-.38-.09-.15-.02-.3-.03-.45-.03-.1,0-.21,0-.32,0,.02-.14.04-.25.05-.36s.03-.21.05-.36h1.4c.08,0,.15,0,.23.04.08.05.14.12.18.2h.06c0-.17-.01-.3-.01-.4s0-.17,0-.2v-.3c.01-.09.02-.19.02-.28-.1,0-.19,0-.29.02-.1,0-.2,0-.3.01s-.21,0-.32,0h-.71c-.12,0-.22-.01-.32-.02-.09-.02-.18-.03-.27-.04-.02.12-.04.24-.04.36-.02.12-.03.24-.05.37s-.04.26-.06.39-.04.27-.06.41-.05.28-.07.43c-.04.15-.06.3-.07.45.1,0,.19,0,.29-.02.08,0,.16-.01.21-.01.13,0,.27.01.4.05.11.03.22.07.31.13.18.11.31.28.36.47.03.11.05.22.05.34,0,.11-.01.23-.04.34-.02.11-.06.21-.11.31-.05.1-.11.19-.18.28-.07.09-.16.17-.25.25-.1.08-.2.15-.31.21-.12.06-.25.12-.38.16-.14.05-.29.09-.44.12v.39c.16,0,.33-.03.49-.06.15-.02.29-.06.44-.09h0Zm2.69-1.82c.04.13.08.26.14.39.05.11.11.22.18.32.07.1.14.18.23.26.08.08.17.14.27.19.09.05.2.09.3.12.11.03.22.04.33.04.11,0,.22-.01.32-.05.1-.03.2-.07.3-.13.1-.06.18-.13.27-.21.09-.09.16-.18.23-.29.07-.11.14-.23.19-.36.06-.14.11-.28.14-.43.04-.16.07-.32.09-.49.02-.18.03-.36.03-.54,0-.16,0-.32-.03-.48-.02-.15-.05-.29-.09-.43-.04-.13-.08-.25-.14-.37-.05-.11-.11-.22-.19-.32-.07-.09-.14-.18-.23-.26-.08-.07-.17-.14-.27-.19-.1-.05-.2-.09-.3-.12-.11-.03-.22-.04-.33-.05-.1,0-.2,0-.29.03-.1.03-.19.07-.28.12-.09.05-.18.12-.26.19-.09.08-.16.17-.23.27-.07.11-.14.22-.19.34-.05.11-.1.22-.13.34-.04.12-.07.24-.09.36-.03.13-.05.25-.06.38-.01.13-.02.26-.02.4,0,.17,0,.33.03.5.02.15.04.29.08.44h0Zm.86-1.97c0-.16.03-.31.06-.46.02-.11.06-.23.11-.33.04-.08.09-.14.16-.19.11-.08.26-.08.38,0,.06.04.11.09.15.15.05.07.09.15.13.24.04.11.07.22.1.33.03.13.05.27.07.43s.03.33.05.52.02.39.02.61,0,.42-.02.59c0,.16-.03.31-.06.46-.02.11-.05.22-.1.33-.03.08-.09.14-.16.19-.12.08-.27.09-.39.02-.06-.04-.11-.09-.15-.14-.05-.07-.09-.15-.12-.24-.04-.11-.07-.22-.1-.33-.03-.13-.05-.27-.07-.43s-.03-.33-.04-.52-.01-.39-.01-.62,0-.42.01-.6h0Zm-26.92,14.69c0,4.04,2.29,7.74,5.9,9.55h.07c.46-.03.92-.05,1.4-.07-5.23-1.84-7.98-7.58-6.13-12.82,1.84-5.23,7.58-7.98,12.81-6.14,5.23,1.84,7.98,7.58,6.13,12.82-.93,2.63-2.91,4.76-5.47,5.87.47-.01.97-.02,1.46-.03,5.08-3.02,6.74-9.59,3.72-14.67-3.02-5.08-9.59-6.74-14.67-3.72-3.24,1.93-5.23,5.43-5.23,9.21h0Zm-4.23,10.37c.29-.03.6-.07.91-.1V9.82l-1.04-2.33c3.76-.53,10.68-1.37,18.67-1.75v-.91c-9.13.43-16.88,1.46-20,1.92.58,1.3,1.46,3.25,1.46,3.25v20.96ZM31.36,9.09h.28s.25-.01.25-.01h.24c.09,0,.18,0,.29,0l.33.02.37.02v-.14c-.14-.06-.25-.12-.36-.17-.08-.04-.16-.09-.24-.14-.04-.03-.08-.06-.11-.11-.02-.06-.03-.13-.03-.19,0-.1-.01-.24-.02-.41s0-.38,0-.62v-2.37c0-.11,0-.2,0-.28,0-.07,0-.14,0-.21,0,0-.21.04-.32.05s-.22.03-.33.05-.22.02-.34.04-.23.02-.36.03-.24.01-.36.02v.11c.14.04.26.08.36.12.08.03.16.06.24.11.05.02.08.06.11.1.02.06.03.13.03.2,0,.1.01.24.01.4s0,.38,0,.62v1.68c0,.17,0,.31-.01.41,0,.07-.01.13-.03.19-.03.04-.06.08-.11.11-.07.05-.15.1-.24.14-.1.05-.22.11-.36.16v.13l.35-.02.34-.03Zm-1.77-2.79c-6.53.31-12.4.94-16.65,1.49l-1.22.16.5,1.12s.19.42.29.64v21.11c.3-.03.6-.06.91-.09V9.5l-.37-.82c3.92-.51,9.84-1.15,16.53-1.48v-.91Zm-.52,9.12c-.48-.04-.95-.16-1.38-.35-.2-.09-.41-.14-.63-.13-.08,0-.15,0-.23.01-.15.02-.29.06-.42.12v8.46c.21-.07.44-.1.66-.1.99.01.81.34,2.09.47.56.05,1.12.04,1.67-.05v-8.49c-.58.09-1.18.1-1.76.04h0Zm-3.09-4.37c-5.27,0-9.54,4.27-9.54,9.54,0,4.66,3.36,8.63,7.95,9.41.5-.02,1.01-.04,1.53-.06h.19c.69-.03,1.4-.05,2.12-.08,5.12-1.24,8.26-6.4,7.02-11.52-1.04-4.28-4.86-7.29-9.26-7.29Zm7.82,11.58c.2.02.34.19.34.38v.68c0,.18-.13.34-.31.35,0,0-.02,0-.03,0l-.64-.04v1.82c0,.18-.13.34-.31.35,0,0-.02,0-.03,0l-5.64-.3c-.8.14-1.61.14-2.4,0l-5.63.3c-.18,0-.33-.14-.34-.32,0,0,0-.02,0-.03v-1.83l-.65.04c-.18,0-.34-.14-.34-.32,0,0,0-.02,0-.03v-.68c0-.2.15-.36.34-.38l.65-.04v-3.81l-.65.04c-.18,0-.34-.14-.34-.32,0,0,0-.02,0-.03v-.68c0-.2.15-.36.34-.38l.65-.04v-1.96c0-.2.15-.36.34-.38l.85-.05c-.11.23-.24.44-.4.64l-.03,9.39c.29-.41.53-.86.71-1.33v-9.34c.82.23,1.67.31,2.51.24,1.28-.14,1.1-.47,2.09-.47.67.39,1.5.39,2.17,0,.99.01.81.34,2.09.47.85.07,1.7,0,2.51-.24v9.34c.18.47.42.92.71,1.33l-.02-9.39c-.16-.2-.29-.41-.4-.64l.86.05c.2.02.34.19.34.38v1.96l.64.04c.2.02.34.18.34.38v.68c0,.18-.13.34-.31.35-.01,0-.02,0-.03,0l-.64-.03v3.81l.64.04Zm15.66,3.56c.32,0,.64-.04.95-.1v-1.61c-.31-.06-.63-.09-.95-.1v1.81Zm-2.87-6.66c-.53.39-.86,1-.88,1.65.1,1.04.82,1.91,1.83,2.2v-8.22h-.95v4.36Zm.11,5.75c0,.27.33.51.83.67v-1.35c-.5.16-.83.4-.83.67h0Zm7.32,4.86c5.29-2.65,7.43-9.09,4.78-14.38-2.65-5.29-9.09-7.43-14.37-4.78-5.29,2.65-7.43,9.09-4.78,14.38.92,1.83,2.34,3.36,4.11,4.41h.01c.49,0,.97.02,1.44.03-5.1-2.21-7.44-8.14-5.23-13.24,2.21-5.1,8.14-7.44,13.23-5.23,5.1,2.21,7.44,8.14,5.23,13.24-1.11,2.57-3.25,4.56-5.89,5.49l1.32.07h.15Zm-2.17-10.61v-4.36h-.95v8.22c1-.29,1.73-1.16,1.83-2.2-.02-.66-.35-1.27-.88-1.66h0Zm11.4-9.71v21.05l.4.04c.17.02.35.04.51.05V10.01l1.46-3.25c-3.12-.46-10.86-1.49-20-1.92v.91c7.99.38,14.9,1.22,18.67,1.75-.43.96-1.05,2.33-1.05,2.33h0Zm-1.46-.31v21.22l.32.03.59.06V9.7l.79-1.76-1.22-.16c-4.25-.55-10.12-1.17-16.65-1.49v.92c6.69.32,12.61.97,16.53,1.48-.12.25-.37.82-.37.82h0Zm-12.31,14.18c.32-.01.64-.06.95-.14v-8.38h-.95v8.52Zm1.44.91v1.37c.53-.17.87-.41.87-.68s-.35-.52-.88-.69h0Zm-2.87,1.48c.31.06.63.09.95.1v-1.8c-.32.01-.64.05-.95.1v1.59ZM9,44.24l-.85.11-.22-.83c-.81-2.9-1.25-5.89-1.31-8.91-1.58.21-2.92.41-4.04.57.47,1.23,2.33,5.04,2.33,5.04-.39,1.91-.61,3.84-.68,5.79,1.54-.2,3.78-.46,6.47-.73-.14-.41-.26-.81-.38-1.21-.46.06-.91.11-1.32.17Zm39.03-20.69c.31.08.63.13.95.14v-8.52h-.95v8.38Zm6.93,11.22c.06-1.07-.66-1.54-2.18-1.63-.21-.01-.41-.01-.62,0-.09,1.07-.16,2.05-.21,2.95l.78.05c1.43.09,2.16-.35,2.23-1.37Zm-17.36,26.84c5.27,0,9.54-4.28,9.53-9.55,0-4.49-3.14-8.38-7.53-9.32-.66,0-1.32,0-2,0s-1.34,0-2,0c-5.15,1.1-8.43,6.17-7.33,11.33.94,4.4,4.83,7.55,9.33,7.54Zm1.86-2.75c-.41.28-.89.43-1.39.43,0,.08-.02.16-.02.21-.02.31-.09.94-.46,1.13-.17-.07-.24-.06-.36-.17-.16-.16-.11-.39-.15-.58-.05-.22-.06-.44-.05-.67-.3-.06-.59-.17-.86-.32-.57-.34-.84-.65-.89-1.12-.07-.61.37-1.04.54-.98.26.1-.23.46,0,.93.26.39.68.63,1.15.66,0-.08-.02-.17-.02-.25-.02-.36-.07-.4-.09-.77-.02-.29.04-.58.18-.83h0c.1-.21,0-.5-.03-.72-.03-.3-.11-.59-.12-.9,0-.04,0-.08,0-.12-.01-.14-.03-.27-.06-.41.35-.02.7-.02,1.05,0h.55c.05.06.09.13.11.2.04.24.03.48-.02.71-.04.24-.09.46-.1.56-.04.4-.07.68-.09.93-.03.33-.06.63-.09,1.09,0,.14-.02.28-.04.42.26-.09.51-.21.73-.38.29-.2.36-.6.16-.89,0-.01-.02-.02-.02-.03l-.02-.02c-.07-.06-.15-.11-.23-.15l.09-.92.08-.43c.08.02.16.04.24.07.66.14,1.17.69,1.24,1.36.09.79-.3,1.56-.98,1.97h0Zm2.37-6.67c-.24.62-.71,1.12-1.32,1.39-.28.13-.59.22-.89.27-.35.05-.71.07-1.06.06-.2,0-.41-.01-.62-.02-.55-.05-1.11-.03-1.66.07-.29.07-.48.2-.44.42.06.11.16.2.28.25.05.03.11.06.18.09.03,0,.06.02.08.03v.19c.02.19.04.39.08.58l.05.35.04.22c.01.07.02.14.03.21-.11-.02-.22-.05-.32-.08-.08-.02-.16-.05-.25-.07l-.2-.06c-1.04-.37-2.07-1.09-1.66-2.32.33-.79,1.06-1.35,1.92-1.44l.4-.05c.39-.04.79-.07,1.21-.09.34-.02.69-.02.99-.03.34.02.68-.03,1-.14.36-.23.46-.71.22-1.07-.03-.05-.08-.1-.12-.14-.08-.1-.19-.17-.31-.2-.09-.02-.17-.02-.26-.02.02-.08.03-.17.03-.25,0-.06,0-.13-.03-.19-.06-.17-.16-.32-.28-.44,0,0-.05-.06-.07-.08,0-.04-.01-.07-.01-.11,0-.12.02-.25.03-.37v-.11c.03-.14.04-.29.05-.44.15,0,.3,0,.46,0,.07,0,.14.01.21.02.86.09,1.63.6,2.05,1.36.41.67.49,1.5.2,2.24h0Zm-3.37-2.29c.12.11.21.23.28.37,0,.15-.03.3-.07.45-.05.23-.12.47-.12.53,0,.13-.02.26-.04.41h-.21l-.65.02h0c-.27.01-.53.03-.78.05,0-.09-.02-.18-.02-.25v-.07c-.02-.42-.09-.83-.22-1.23-.07-.24-.14-.47-.19-.71-.02-.07-.02-.14,0-.2.05-.12.12-.24.2-.34.15-.37.22-.76.19-1.16.23,0,.46.01.69.05.2.05.4.12.59.21l.32.12v.31c0,.17-.02.34-.04.5-.04.29-.13.73.05.95h0Zm-2.16-5.69s.87-.23,1.31-.4l1.05-.13c.13.02.24.09.31.2.19.36-.25,1.09-.33,1.46,0,.03,0,.04-.01.07-.21,0-.41,0-.61-.01h-.17q-.15,0-.54-.06l-.76-.09c-.04-.15-.09-.29-.12-.4-.09-.23-.22-.39-.13-.62h0Zm-2.64,2.21c.76-.57,1.71-.83,2.65-.73h.12c1.41.19,1.09.16,1.5.18.27.03.55.03.82.01.09,0,.18-.03.27-.06.42-.19.88-.25,1.34-.18.59.13.5.18.64.25.18.1.37.18.56.25.12.04.82.33.92.39.07.06.12.14.12.24.03.22-.01.44-.12.64-.67.25-1.37.4-2.08.46-.52.03-1.05,0-1.56-.12-.05-.01-.09-.03-.14-.05-.35-.15-.71-.28-1.08-.38-.36-.05-.73-.07-1.09-.04-.3.02-.6.09-.88.2-.59.25-.84.49-.97,1-.15.65.49,1.01.85,1.04h.05c.13,0,.27,0,.4-.02v.06c.05.23.11.46.17.67l.02.08c.11.36.18.72.2,1.1-.07,0-.14.02-.22.02-.21.01-.41.02-.62.03-.8.06-1.6-.17-2.25-.65-.36-.32-.62-.73-.75-1.19-.36-1.21.1-2.5,1.13-3.22h0Zm6.44.22c.15.05.32,0,.41-.14.11.05.19.09.19.09-.07-.19-.22-.34-.4-.41-.03-.01-.06-.02-.09-.03-.2-.04-.39.03-.42.17s.11.28.31.32h0Zm-21.77,4.11c-1.35-2.26-2.45-4.66-3.28-7.16l-.49.04-.44.04c.86,2.63,2.01,5.16,3.43,7.54,4.58,7.52,11.39,13.42,19.49,16.88l.14.06.41.2.57-.25h0c8.09-3.47,14.9-9.37,19.49-16.89,1.42-2.38,2.57-4.91,3.43-7.54-.31-.03-.61-.06-.93-.09-.83,2.5-1.93,4.9-3.28,7.16-4.49,7.36-11.16,13.13-19.08,16.53,0,0-.11.05-.19.08-.05-.03-.2-.09-.2-.09h0c-7.93-3.39-14.6-9.16-19.08-16.52h0Zm49.27-16.34v-2.01c-9.95-1.26-19.97-1.83-29.99-1.7-10.03-.13-20.05.44-30,1.7v2.01c.04,3,.47,5.98,1.27,8.87,9.53-1.13,19.13-1.65,28.73-1.54,9.6-.11,19.2.4,28.73,1.54.8-2.89,1.22-5.87,1.26-8.87h0Zm-47.91,6c-.51.04-1.12.13-1.83.26v-.18c.96-.33,1.13-.34,1.09-.82-.28-1.85-.65-3.68-1.11-5.49-.77,2.02-1.51,4.24-2.22,6.68h-.14c-1.19-2.36-2.3-4.44-3.31-6.26-.06,3.11-.03,4.93.01,5.47.05.59.14.57,1.14.78v.18c-.75,0-1.24,0-1.46.01-.49.04-.97.12-1.45.23v-.18c.67-.26,1.02-.42,1.07-.71.08-.45.12-.91.14-1.37.12-2.78.07-4.26.06-4.43-.04-.53-.14-.57-1.04-.75v-.18c.27,0,.52,0,.76-.01.4-.03.84-.09,1.35-.16.84,1.68,1.78,3.49,2.87,5.41.76-1.97,1.44-3.91,2.06-5.81.42,0,.77-.01,1.07-.04s.7-.08,1.12-.14v.18c-.86.31-1.06.37-1.02.81.04.5.25,1.42.53,2.77.18,1.03.43,2.04.73,3.04.11.28.45.35,1.1.51v.18c-.73,0-1.24,0-1.53.02h0Zm4.7-.23c-.76.04-1.53.1-2.3.19v-.18c.41-.09.79-.29,1.09-.58.04-2.06-.06-4.13-.31-6.17-.33-.26-.73-.42-1.15-.45v-.25c.42.04.86.05,1.29.02.43-.02.88-.05,1.35-.08.52-.03,1.04-.04,1.56-.07.58-.02,1.15-.08,1.72-.17l.1,1.8h-.15c-.08-.4-.26-.79-.52-1.12-.51-.09-1.03-.1-1.55-.04-.47.02-.97.02-1.52.05-.02.57,0,1.52.07,2.92l.96-.05c.57.01,1.15-.05,1.7-.17.24-.31.39-.67.46-1.06h.17c-.03.42-.03.86-.02,1.29.01.3.06.77.13,1.43h-.17c-.08-.4-.26-.78-.54-1.08-.57-.07-1.14-.07-1.71,0l-.96.05c.01.25.02.5.04.72.06,1.12.12,1.96.19,2.51.56.02,1.03.02,1.42,0,.57,0,1.15-.07,1.7-.23.25-.39.41-.84.46-1.31h.19s.04,1.9.04,1.9c-1.84.02-3.09.08-3.74.11h0Zm10.99-.29c-1.79-.02-3.03-.01-3.71,0-.59.01-1.23.05-1.95.12v-.18c.42-.08.8-.27,1.12-.55.1-1.02.11-2.06.04-3.08.03-1.04-.03-2.07-.18-3.1-.33-.26-.72-.43-1.14-.48v-.18c.57.05,1.15.07,1.72.07.46-.01,1.02-.06,1.71-.15v.18c-.41.07-.8.26-1.12.54-.1,1.03-.11,2.07-.04,3.1.02.93.07,2.02.13,3.28h1.05c.57.03,1.14-.03,1.7-.18.28-.39.48-.83.58-1.3h.19l-.1,1.92Zm4.67-7.39c-.42.06-.81.24-1.13.51-.13,1.03-.17,2.07-.12,3.1-.06,1.03-.03,2.06.1,3.08.32.28.71.46,1.13.53v.18c-.57-.07-1.14-.11-1.71-.12-.58,0-1.15.04-1.72.1v-.18c.42-.06.81-.24,1.13-.52.13-1.02.17-2.05.12-3.08.06-1.03.03-2.07-.09-3.1-.32-.27-.71-.45-1.13-.52v-.18c.69.07,1.26.11,1.72.11.57,0,1.14-.04,1.71-.1v.18Zm7.62,6.52c-1.41,1.49-3.76,1.55-5.25.14-.05-.05-.11-.11-.16-.16-.7-.81-1.05-1.86-.99-2.93.01-.97.36-1.91.99-2.66,1.39-1.49,3.74-1.57,5.23-.18.06.06.12.12.18.18.7.82,1.06,1.89,1,2.97-.01.97-.37,1.91-1,2.64h0Zm17.24,2.29c-.76-.14-1.33-.22-1.68-.25-.49-.04-1.06-.04-1.74-.04l.02-.18c.77-.1,1.17-.24,1.18-.39-.09-.66-.26-1.32-.5-1.94l-2.95-.25c-.35.59-.62,1.22-.83,1.87-.02.19.31.34.97.5l-.02.2c-.44-.1-.89-.18-1.34-.22-.26-.02-.65-.02-1.19,0v.02h-.12s-.02-.01-.02-.01h0c-.24-.03-.46-.06-.69-.07-.27-.02-.54-.02-.8-.01-.74-1.41-1.49-2.72-2.23-3.93-.13-.02-.27-.03-.4-.04-.17,0-.39-.02-.65-.03-.02.27-.03.52-.05.75-.07,1.21-.08,1.94-.07,2.15.01.37.34.5,1.13.78v.18c-.69-.11-1.26-.18-1.73-.21-.36-.02-.93-.02-1.7,0v-.18c.43-.04.83-.2,1.17-.45.19-1.01.28-2.04.29-3.07.12-1.03.14-2.07.08-3.1-.3-.29-.68-.49-1.1-.58v-.18c.35.06.69.11,1.03.13,1,.06,1.83.03,2.51.07,1.81.11,2.69.78,2.62,1.92-.05.88-.72,1.48-2,1.77,1.35,2.45,1.89,3.84,2.65,3.91.5-.12.8-.22.95-.47.25-.41,1.52-2.68,3.7-6.89l.21.02c1.25,4.27,2.02,6.72,2.28,7.36.13.32.45.47,1.03.68v.18Zm-19.9-8.65c-1.57-.05-2.51,1.05-2.57,3.14-.08,2.48.86,3.9,2.47,3.95,1.58.05,2.52-1.05,2.58-3.13.08-2.48-.87-3.91-2.48-3.96h0Zm14.44,5.14l2.59.22c-.27-1-.58-2.11-.96-3.3-.51.9-1.05,1.93-1.63,3.08h0Zm2.2,5.94c-.88,2.71-2.06,5.32-3.52,7.77-4.64,7.61-11.54,13.59-19.73,17.1l-.8.36c-.34-.15-.8-.36-.8-.36-8.19-3.51-15.09-9.49-19.73-17.1-1.46-2.45-2.65-5.05-3.52-7.77l-.47.05-.45.05c.9,2.85,2.13,5.58,3.67,8.14,4.74,7.77,11.78,13.88,20.14,17.46,0,0,.69.31,1.17.53.49-.22,1.17-.53,1.17-.53,8.36-3.59,15.4-9.7,20.14-17.47,1.53-2.56,2.76-5.3,3.66-8.14l-.71-.07-.22-.02Zm13.53-10.06l-3.09-.45-2.63-.37v-2.07l-1.6-.24-.55-.07V10.69c.15-.33,2.87-6.4,2.87-6.4l-2.59-.43c-9.93-1.52-19.96-2.32-30-2.4-10.05.07-20.08.87-30.01,2.4h0l-2.59.43,2.88,6.4v19.77l-.54.07-1.61.24v2.08l-5.72.8.83,2.19c.41,1.09,1.72,3.79,2.14,4.66-.34,1.79-.55,3.61-.62,5.43l-.08,2.22,2.2-.3,6-.67c.85,2.21,1.88,4.35,3.09,6.39,5.06,8.33,12.6,14.88,21.55,18.73l2.48,1.13,2.48-1.13c8.95-3.85,16.49-10.4,21.55-18.72,1.2-2.04,2.24-4.18,3.09-6.39l6,.67,2.2.3-.09-2.23c-.07-1.82-.28-3.63-.61-5.42.82-1.71,1.79-3.73,2.15-4.66l.81-2.19Zm-1.65,1.87c-.41,1.08-1.8,3.94-2.23,4.84.36,1.85.57,3.72.65,5.6l.05,1.17-1.16-.16c-1.68-.22-3.97-.47-6.68-.75h0c-.88,2.39-1.98,4.7-3.29,6.89-4.97,8.17-12.37,14.6-21.16,18.37l-2.12.96-.47-.21-1.64-.75c-8.79-3.78-16.18-10.2-21.16-18.37-1.31-2.19-2.41-4.49-3.28-6.89-2.71.26-5,.53-6.68.75l-1.16.16.04-1.17c.07-1.88.29-3.75.65-5.6-.44-.9-1.82-3.76-2.23-4.84l-.44-1.16,2-.28c.97-.14,2.1-.3,3.39-.47v-2.08l.85-.13c.41-.06.84-.12,1.3-.18V10.5l-2.48-5.52,1.46-.24c9.88-1.52,19.86-2.32,29.86-2.38,10,.07,19.97.86,29.86,2.38l1.46.24-2.48,5.52v20.74c.46.06.89.12,1.31.18l.84.13v2.08c1.29.17,2.42.33,3.39.47l2.01.29-.44,1.14Zm-6.26,7.98l-.23.83-.85-.11c-.42-.06-.86-.11-1.33-.17-.12.4-.24.79-.37,1.2h0c2.69.27,4.92.52,6.47.73-.07-1.94-.3-3.88-.68-5.79,0,0,1.87-3.81,2.34-5.04-1.11-.16-2.45-.36-4.04-.57-.06,3.01-.49,6.01-1.3,8.91h0Zm-40.39,8.55c0,5.91,4.79,10.71,10.7,10.72,5.91,0,10.71-4.79,10.71-10.7,0-3.85-2.06-7.41-5.41-9.31-.49,0-1.01-.01-1.51-.02,5.15,2.09,7.62,7.96,5.53,13.11-2.09,5.15-7.96,7.62-13.1,5.53-5.15-2.09-7.62-7.96-5.53-13.11,1.02-2.51,3.02-4.51,5.53-5.53-.51,0-1.02,0-1.51.02-3.34,1.91-5.4,5.45-5.4,9.3h0Z"/>
    </g>
  </g>
</svg>