<?xml version="1.0" encoding="UTF-8"?>
<svg id="Layer_1" data-name="Layer 1" xmlns="http://www.w3.org/2000/svg" viewBox="0 0 173.42 35.88">
  <defs>
    <style>
      .cls-1 {
        fill: #fff;
        stroke: #231f20;
        stroke-miterlimit: 10;
        stroke-width: .24px;
      }
    </style>
  </defs>
  <g id="Group_213" data-name="Group 213">
    <path id="Path_69" data-name="Path 69" class="cls-1" d="m53.26,5.14c1.47,1.01,2.34,2.69,2.34,4.47.07,1.69-.74,3.3-2.15,4.25-.7.53-1.47.95-2.3,1.23-.15.07-.08.33.08.71,1.3,2.29,2.72,4.52,4.26,6.67.83,1.16,1.75,2.26,2.75,3.28,1.21,1.19,2.3,1.53,2.97,1.53.3,0,.49.11.49.22,0,.07-.15.19-.45.3-.47.12-.95.17-1.43.15-2.3,0-3.8-1.23-5.2-2.94-1.92-2.42-5.08-7.56-5.61-8.2-.3-.39-.7-.69-1.17-.86-.62-.15-1.25-.2-1.88-.15-.18,0-.33.13-.38.3-.08.37-.12,5.14-.08,6.63,0,1.14.09,2.27.3,3.39.15.45.41.82,1.77,1.04.41.07.56.15.56.3s-.3.26-.75.26c-.79,0-1.51-.19-2.79-.19-1.39,0-2.49.19-3.2.19-.38,0-.64-.07-.64-.26,0-.15.26-.22.75-.34,1.17-.22,1.58-.56,1.69-2.12.12-2.12.19-4.92.19-10.32s-.15-7.19-.23-8.38c-.07-1.08-.15-1.6-1.73-1.86-.34-.07-.64-.15-.64-.34,0-.11.19-.22.68-.22.53,0,1.43.15,2.79.15s2.79-.19,4.03-.19c2.26,0,3.73.41,4.97,1.3Zm-7.49-.48c-.07.04-.19.04-.23.63-.04.74-.04,8.64-.04,9.24,0,.56.15.67.26.67.34.03.68.04,1.02.04,1.09,0,3.43-.3,4.18-.78,1.39-.99,2.23-2.58,2.26-4.28,0-1.97-.6-3.39-1.58-4.28-1.02-.93-2.37-1.49-4.63-1.49-.43,0-.85.09-1.24.26h0Z"/>
    <path id="Path_70" data-name="Path 70" class="cls-1" d="m57.16,18.05c0-2.23.92-4.43,3.36-6.2,1.4-1.05,3.11-1.61,4.87-1.58,4.44-.08,8.11,3.46,8.2,7.9,0,.06,0,.12,0,.18-.03,3.1-1.87,5.89-4.7,7.14-1.07.47-2.23.73-3.4.74-4.55.03-8.27-3.63-8.33-8.18Zm11.73,6.72c1.21-.94,2.65-3.07,2.65-6.27,0-2.33-.69-4.43-2.19-5.91-1.15-1.2-2.75-1.86-4.41-1.84-1.47.09-2.85.74-3.85,1.81-1.37,1.42-1.8,3.49-1.8,5.59.03,1.87.69,3.68,1.86,5.14,1.57,1.84,3.17,2.39,4.83,2.39,1.04.02,2.06-.3,2.91-.9h0Z"/>
    <path id="Path_71" data-name="Path 71" class="cls-1" d="m88.52,11.16c.17.08.3.23.33.42-.03.68-.01,1.36.03,2.04.03.39-.1.65-.2.65-.13,0-.16-.16-.23-.39-.17-.85-.66-1.6-1.37-2.1-1.12-.78-2.46-1.15-3.82-1.07-1.72,0-3.38.67-4.61,1.87-1.08,1.1-1.93,3.17-1.93,5.52.03,2.05.81,4.01,2.19,5.53,1.27,1.24,2.96,1.94,4.74,1.97,1.5,0,2.29-.23,3-.68.92-.58,1.64-1.42,2.06-2.42.13-.32.2-.45.33-.45.1,0,.13.26.13.49-.07.55-.2,1.09-.39,1.62-.06.29-.19.56-.39.78-1.53.9-3.29,1.35-5.06,1.29-3.2,0-4.9-.94-6.53-2.39-1.14-1-2.22-3.23-2.22-5.52,0-2.37,1.08-4.61,2.94-6.07,1.68-1.3,3.75-2,5.88-1.97,1.75.01,3.48.32,5.13.9Z"/>
    <path id="Path_72" data-name="Path 72" class="cls-1" d="m91.76,12.88c0-1.03-.16-1.55-1.24-1.74-.33-.07-.59-.16-.59-.29s.33-.19.55-.19c.43,0,1.27.1,2.09.1.65,0,1.93-.1,2.25-.1.29,0,.52.03.52.16,0,.16-.33.29-.52.32-.85.16-1.11.48-1.14,1.26,0,.52-.06,4.52-.03,4.81.03.23.07.45.23.45h6.83c.87.03,1.74.02,2.61-.03.2-.03.23-.13.26-.29.07-.36.03-3.46,0-4.3-.07-1.39-.29-1.75-1.21-1.87-.29-.06-.62-.16-.62-.29,0-.16.26-.23.62-.23,1.11,0,1.21.1,2.25.1.82,0,1.37-.1,1.99-.1.46,0,.65.07.65.19,0,.1-.2.23-.52.26-1.14.16-1.31.68-1.31,1.65,0,.61-.03,4.27,0,5.91.03,1.61.07,4.01.07,4.75,0,1.36.13,1.65,1.44,1.94.33.06.52.13.52.29,0,.13-.23.19-.56.19-.42,0-1.86-.1-2.38-.1-.69,0-1.73.1-2.06.1-.46,0-.65-.06-.65-.19,0-.16.26-.23.49-.29.98-.16,1.18-.29,1.27-1.29.03-.42.03-2.39.03-5.01,0-.21-.09-.42-.26-.55-.46-.07-1.96-.1-5.32-.1h-4.21c-.13,0-.23.16-.23.48,0,5.07.07,5.36.13,5.62.1.49.39.61,1.14.81.36.1.56.19.56.32,0,.19-.42.19-.59.19-.49,0-1.54-.1-2.32-.1-.69,0-1.6.1-1.99.1-.26,0-.65-.03-.65-.23,0-.1.33-.23.59-.26,1.11-.23,1.14-.52,1.21-1.2s.1-2.26.1-6.01v-5.27Z"/>
    <path id="Path_73" data-name="Path 73" class="cls-1" d="m108.58,10.87c0-.13.2-.23.39-.23.65,0,1.53.1,2.15.1,1.4,0,4.44-.07,5.49-.07.95,0,1.76-.03,1.99-.03.13,0,.23.23.26.39.03.26.13,1.39.2,1.84.03.26-.03.45-.16.45-.1,0-.2-.16-.29-.39-.49-1.1-.92-1.49-1.31-1.55-.42-.07-.52-.1-4.83-.1-.16,0-.26.06-.26.36,0,1.32-.03,5.01,0,5.72,0,.13.07.26.2.26h2.81c.72.06,1.44-.03,2.12-.26.16-.1.36-.29.62-.94.07-.19.16-.39.29-.39.1,0,.13.13.13.45,0,.13-.13,1.1-.16,1.45-.03.48-.03.97,0,1.45.03.23-.03.48-.13.48-.13,0-.2-.16-.36-.55s-.33-.9-.72-.97c-.39-.1-1.14-.16-4.67-.16-.07,0-.2.1-.2.32-.03.78.07,4.72.1,5.2.07.9.1,1.32.65,1.39.33.03,1.27.1,2.65.1,2.38,0,2.61-.13,3.01-.42.44-.45.82-.96,1.11-1.52.13-.26.26-.42.36-.42.13,0,.16.23,0,.68-.1.26-.49,1.61-.56,1.94-.07.2-.25.34-.46.36-2.78,0-5.39-.1-7.74-.1-.85,0-1.96.1-2.25.1s-.65,0-.65-.19c0-.13.26-.23.52-.26.88-.16,1.27-.42,1.34-1.39.1-1.55.1-4.39.1-6.82v-4.3c0-1.29-.39-1.55-1.27-1.74-.29-.07-.42-.16-.42-.29l-.03.03Z"/>
    <path id="Path_74" data-name="Path 74" class="cls-1" d="m123.62,13.56c.06,1.13.67,2.16,1.63,2.75.95.61,1.8,1.16,2.74,1.71.98.65,2.58,1.78,2.58,3.78,0,2.75-2.55,4.43-5.16,4.43-1.19,0-2.37-.24-3.46-.71-.33-.1-.39-.52-.49-.9-.03-.42-.13-.94-.2-1.75-.03-.29,0-.55.13-.55s.29.23.42.61c.19.78.62,1.48,1.24,2,.71.52,1.57.8,2.45.81,2.02,0,3.2-1.29,3.2-2.97s-.98-2.62-3.17-3.91c-1.86-1.1-3.56-2.42-3.56-4.56,0-1.22.58-2.36,1.57-3.07.97-.65,2.13-.99,3.3-.97.92.01,1.82.19,2.68.52.16.04.28.17.33.32.01.61.08,1.21.2,1.81.06.36.03.58-.1.58s-.23-.16-.33-.48c-.19-.63-.57-1.18-1.08-1.58-.61-.47-1.36-.72-2.12-.71-1.47-.09-2.72,1.03-2.81,2.49,0,.12,0,.23,0,.35Z"/>
    <path id="Path_75" data-name="Path 75" class="cls-1" d="m142.87,10.75c.69.05,1.39-.02,2.06-.23.16-.1.33-.19.39-.13s.07.16.03.29c-.16.78-.21,1.57-.16,2.36,0,.36-.07.61-.2.61-.1,0-.2-.23-.23-.39-.1-.5-.27-.99-.49-1.45-.2-.26-.26-.39-1.08-.39h-3.82c-.13,0-.2.29-.2.42l-.07,8.5c0,1.42,0,3.13.1,3.88.1.71.46.97,1.31,1.13.36.06.56.19.56.32s-.39.19-.62.19c-.78,0-1.34-.13-2.32-.13-1.34,0-1.93.13-2.32.13-.46,0-.62-.1-.62-.19,0-.13.23-.23.55-.29,1.21-.16,1.37-.45,1.4-1.68.1-2.42.16-11.6.16-11.86,0-.13-.03-.39-.16-.42h-2.06c-1.08,0-1.86.03-2.19.06-.49.06-.88.39-1.14,1.68-.07.29-.16.45-.26.45-.13,0-.2-.19-.2-.48,0-.52.26-1.61.26-2.45-.01-.13.02-.25.1-.36.1-.07.16,0,.29.13.25.13.53.19.82.19.36.03,3,.1,5.68.1h4.41Z"/>
    <path id="Path_76" data-name="Path 76" class="cls-1" d="m146.4,10.87c0-.13.2-.23.39-.23.65,0,1.53.1,2.16.1,1.4,0,4.44-.07,5.49-.07.95,0,1.76-.03,1.99-.03.13,0,.23.23.26.39.03.26.13,1.39.2,1.84.03.26-.03.45-.16.45-.1,0-.2-.16-.29-.39-.49-1.1-.91-1.49-1.31-1.55-.42-.07-.52-.1-4.84-.1-.16,0-.26.06-.26.36,0,1.32-.03,5.01,0,5.72,0,.13.06.26.19.26h2.81c.72.06,1.44-.03,2.12-.26.16-.1.36-.29.62-.94.06-.19.16-.39.29-.39.1,0,.13.13.13.45,0,.13-.13,1.1-.16,1.45-.03.48-.03.97,0,1.45.03.23-.03.48-.13.48-.13,0-.2-.16-.36-.55s-.33-.9-.72-.97c-.39-.1-1.14-.16-4.67-.16-.07,0-.2.1-.2.32-.03.78.07,4.72.1,5.2.07.9.1,1.32.65,1.39.33.03,1.27.1,2.65.1,2.38,0,2.61-.13,3.01-.42.44-.45.82-.96,1.11-1.52.13-.26.26-.42.36-.42.13,0,.16.23,0,.68-.1.26-.49,1.61-.56,1.94-.07.2-.25.34-.46.36-2.78,0-5.39-.1-7.74-.1-.85,0-1.96.1-2.25.1s-.65,0-.65-.19c0-.13.26-.23.52-.26.88-.16,1.27-.42,1.34-1.39.1-1.55.1-4.39.1-6.82v-4.3c0-1.29-.39-1.55-1.27-1.74-.29-.07-.42-.16-.42-.29l-.03.03Z"/>
    <path id="Path_77" data-name="Path 77" class="cls-1" d="m162.13,21.99c-.03.82.02,1.64.13,2.46.03.52.43.78,1.14.91.23.03.52.13.52.26s-.29.23-.59.23c-.56,0-1.53-.1-2.45-.1s-1.4.1-1.89.1c-.39,0-.56-.1-.56-.19,0-.13.2-.23.56-.29.91-.16,1.18-.42,1.24-1.29.1-1.36.1-3.04.1-6.49s0-4.59-.03-5.23c-.03-.71-.26-1.07-1.27-1.23-.26-.03-.49-.16-.49-.26,0-.13.29-.19.49-.19.36,0,.98.1,1.86.1,1.14,0,2.25-.13,3.4-.13,1.25-.09,2.5.23,3.56.91.97.59,1.57,1.64,1.57,2.78,0,1.94-1.34,3.1-2.97,3.62-.2.06-.2.16-.07.42.87,1.46,1.83,2.86,2.87,4.2.55.73,1.16,1.41,1.83,2.04.54.54,1.26.86,2.02.9.29,0,.23.19,0,.32-.39.16-.82.23-1.24.19-1.7,0-2.51-.74-3.59-1.87-1.27-1.36-3.1-4.23-3.66-4.98-.3-.28-.67-.47-1.08-.55-.39-.04-.78-.06-1.18-.07-.13,0-.23.23-.23.45v3Zm.29-10.66c-.07.03-.16.19-.2.65-.03.39-.1,5.17-.1,5.56,0,.13.07.48.23.48.39.03.92.03,1.44.03.81-.01,1.61-.22,2.32-.61.91-.57,1.46-1.58,1.44-2.65.01-.89-.3-1.75-.88-2.42-.77-.81-1.85-1.26-2.97-1.23-.43,0-.86.07-1.28.2h0Z"/>
  </g>
  <g id="Group_216" data-name="Group 216">
    <g id="Group_214" data-name="Group 214">
      <path id="Path_78" data-name="Path 78" class="cls-1" d="m146.61,3.83c0,.9-.39,1.76-1.09,2.33-.27.2-.59.31-.93.33-.74,0-1.15-.78-1.14-1.43.03-.85.41-1.65,1.06-2.2.29-.2.63-.32.98-.36.67.05,1.17.62,1.12,1.29,0,.01,0,.03,0,.04Zm-1.85-.34c-.36.59-.57,1.27-.6,1.96,0,.35.15.6.49.6.16,0,.34-.1.6-.48.38-.62.61-1.31.68-2.04,0-.3-.09-.62-.45-.62-.17,0-.43.1-.72.58h0Z"/>
      <path id="Path_79" data-name="Path 79" class="cls-1" d="m150.08,2.6c.17,0,.21.05.21.1,0,.08-.09.27-.21.3-.09.02-.52.04-.71.05-.05,0-.21.05-.24.15-.43,2.03-.71,3.11-.9,3.78-.24.9-1,1.56-1.92,1.68-.22,0-.63-.17-.63-.48,0-.17.06-.33.18-.44.05-.02.27-.07.31-.03.17.2.4.34.66.39.22,0,.4-.06.6-.8.27-1.01.87-3.77.94-4.13,0-.04-.02-.11-.06-.11l-.6.02s-.1-.07-.1-.12c.01-.12.09-.23.19-.29.07,0,.44-.03.6-.04.06,0,.11-.09.13-.11.2-.84.67-1.58,1.34-2.13.24-.16.52-.26.82-.28.6,0,.86.33.86.66,0,.16-.07.31-.19.41-.08.05-.16.08-.26.09-.05,0-.16-.06-.17-.13-.05-.38-.19-.62-.54-.62-.2.04-.38.17-.49.35-.29.52-.49,1.09-.6,1.68,0,.04.06.08.06.08l.71-.03Z"/>
    </g>
    <g id="Group_215" data-name="Group 215">
      <path id="Path_80" data-name="Path 80" class="cls-1" d="m65.24.68c.45,0,.7.07,1.3.07.48,0,.73-.03,1.11-.03.31,0,.42.09.42.16,0,.1-.06.19-.39.26-.42.09-.66.17-.66.73-.01.83,0,1.85.01,2.78-.02.65.22,1.29.67,1.76.38.26.82.41,1.28.42.93,0,1.72-.25,1.88-2,.07-1.05.06-2.73.06-2.9-.04-.47-.12-.73-.8-.85-.16-.03-.31-.12-.31-.22,0-.13.19-.16.38-.16.36,0,.32.03.68.03.58,0,1.09-.07,1.41-.07.22,0,.34.1.34.15,0,.15-.15.2-.34.25-.54.13-.7.31-.71.9-.01.41-.07,1.2-.1,2.07-.03,1.21-.28,2.33-1.05,2.94-.5.39-1.13.6-1.76.57-.67.02-1.33-.19-1.87-.6-.61-.51-.93-1.24-.93-3.02,0-.39-.01-2.06-.04-2.32-.01-.15-.06-.41-.64-.54-.17-.04-.34-.16-.34-.23,0-.13.16-.18.39-.18Z"/>
      <path id="Path_81" data-name="Path 81" class="cls-1" d="m73.99.69c.33,0,1.31.09,1.65.09.12,0,.19.06.29.19.28.35.6.67.98,1.11.39.45,2.29,2.51,3.03,3.29.03.02.07.01.09-.01,0-.01.01-.03.01-.04.01-.8.09-2.71.01-3.41-.04-.42-.2-.66-.9-.82-.12-.04-.31-.1-.31-.23,0-.16.31-.16.35-.16.5,0,.87.06,1.24.06.29,0,.66-.06,1.02-.06.15,0,.31.06.31.16s-.07.15-.31.23c-.57.16-.68.35-.74.92-.06.55-.13,2.42-.13,3.26s.04,1.78.04,1.88c0,.23-.06.39-.19.39-.16-.03-.31-.11-.44-.22-.25-.29-.82-1.06-1.62-1.92-.67-.73-1.69-1.98-2.55-2.89-.03-.03-.07-.04-.1,0-.02.02-.03.04-.03.07-.01.5-.09,2.61-.01,3.57.04.47.38.67.82.82.16.06.26.12.26.22,0,.15-.2.19-.34.19-.04,0-.5-.04-.9-.04-.36,0-.98.09-1.3.09-.19,0-.35-.04-.35-.19,0-.07.06-.13.34-.2.7-.17.79-.44.83-.8.03-.36.12-1.73.12-3.02,0-.68-.01-1.08-.03-1.2-.1-.28-.29-.52-.53-.7-.18-.13-.38-.2-.6-.23-.26-.04-.38-.12-.38-.23,0-.06.17-.15.36-.15Z"/>
      <path id="Path_82" data-name="Path 82" class="cls-1" d="m83.65.71c.12.01,1.14.04,1.56.04.47,0,.94-.03,1.41-.09.1-.01.32.09.32.16,0,.1-.19.23-.36.26-.7.2-.76.32-.79.85-.03.32-.03,1.06-.03,2.01,0,.83,0,1.57.01,1.88.03.83.13.96.82,1.12.17.04.34.16.34.29,0,.1-.15.13-.29.13-.41,0-.8-.04-1.43-.04-.42,0-1.2.07-1.47.07-.22,0-.35-.06-.35-.16,0-.13.22-.23.35-.28.7-.17.83-.34.86-.89.01-.26.03-.71.03-1.2,0-1.53,0-2.55-.01-2.78-.04-.63-.29-.82-.86-.98-.26-.09-.31-.19-.31-.28,0-.06.04-.14.2-.13Z"/>
      <path id="Path_83" data-name="Path 83" class="cls-1" d="m88.8.68c.28,0,.86.07,1.32.07.44,0,.86-.04,1.19-.04.29,0,.38.09.38.17s-.1.16-.34.23c-.57.12-.54.36-.41.7.19.47.41,1.06.71,1.81.25.65.53,1.29.86,1.91.06.06.12.13.17-.03.17-.41,1.14-2.77,1.37-3.44.22-.66.19-.82-.39-.96-.13-.04-.31-.15-.31-.23,0-.04.12-.16.35-.16.39,0,.58.04.95.04.51,0,.96-.07,1.19-.07.16,0,.32.04.32.15,0,.15-.17.2-.38.26-.47.12-.74.35-1.11,1.04-.34.6-.71,1.6-1.18,2.64-.7,1.54-.93,2.29-1.01,2.46-.06.17-.26.39-.38.39-.1,0-.19-.16-.22-.29-.15-.52-.33-1.03-.54-1.53-.34-.77-1.36-3.21-1.79-4.07-.17-.35-.5-.6-.89-.66-.13-.04-.32-.12-.32-.22,0-.15.22-.17.43-.17Z"/>
      <path id="Path_84" data-name="Path 84" class="cls-1" d="m100.44,3.73c.63,0,.7-.07.9-.57.07-.13.17-.29.28-.29.12,0,.13.15.13.34,0,.1-.04.29-.04.67,0,.42.04.47.04.77,0,.32-.09.41-.2.41-.09,0-.16-.12-.23-.29-.13-.29-.19-.42-.32-.48-.42-.06-.84-.08-1.27-.06-.04,0-.12.1-.15.2-.06.69-.05,1.39.03,2.08.06.09.15.17.25.23.28.11.58.16.87.16.31,0,.63-.02.93-.09.45-.13.63-.2,1.05-.86.12-.19.2-.29.29-.29.15,0,.15.25.15.32-.07.44-.2.88-.39,1.28-.06.1-.15.13-.47.13-1.37,0-1.36-.07-3.35-.07-.47,0-.96.07-1.31.07-.19,0-.44-.04-.44-.19,0-.13.17-.2.34-.25.82-.19.85-.36.89-.87.03-.39.04-1.34.04-2.29,0-.67,0-1.41-.03-2.04-.01-.31-.1-.51-.71-.66-.17-.04-.35-.12-.35-.25,0-.1.16-.16.39-.16.26,0,.73.06,1.28.06,2.8,0,2.86.01,3.21-.06.08,0,.16.05.17.13,0,.42.1,1.04.1,1.24,0,.17-.1.26-.15.26-.07,0-.19-.06-.31-.29-.26-.54-.44-.73-.89-.79-.48-.05-.96-.07-1.44-.06-.06,0-.12.13-.13.19-.05.71-.06,1.43-.03,2.14,0,.07.06.15.17.17.23.02.46.03.69.03Z"/>
      <path id="Path_85" data-name="Path 85" class="cls-1" d="m104.86.74h.82c.35,0,.92-.06,2.13-.06.68-.07,1.36.12,1.89.54.34.29.53.71.52,1.15-.01.76-.52,1.41-1.25,1.6-.03.01-.07.07-.06.09.41.77.9,1.5,1.47,2.17.32.38.74.66,1.21.8.22.04.26.07.26.2,0,.17-.33.26-.87.26-.7,0-1.35-.34-1.76-.9-.26-.29-1.08-1.6-1.31-1.95-.23-.25-.55-.39-.89-.39-.09,0-.17.04-.23.1-.03.03-.05.07-.06.12,0,.31.01,1.08.04,1.87.01.44.26.5.64.61.12.03.29.1.29.22,0,.17-.25.2-.39.2-.47,0-.77-.04-1.14-.04-.45,0-.9.1-1.36.1-.25,0-.39-.07-.39-.17,0-.09.12-.2.36-.26.66-.16.76-.29.79-.93.01-.29.07-1.56.07-2.93,0-.63.01-.99-.01-1.34-.03-.31-.04-.54-.77-.66-.22-.04-.36-.13-.36-.23s.18-.16.36-.16Zm2.05.44c-.09.04-.15.13-.15.23,0,.15-.04,2.19-.04,2.32,0,.08.06.15.14.16,0,0,0,0,0,0,.54.02,1.07-.06,1.57-.25.37-.26.6-.67.61-1.12,0-.61-.47-1.41-1.73-1.41-.14,0-.28.03-.41.07h0Z"/>
      <path id="Path_86" data-name="Path 86" class="cls-1" d="m117.29.75c.1.01.15.19.15.35.01.32,0,.63-.01.95-.04.28-.16.32-.2.32-.13,0-.19-.17-.23-.35-.07-.32-.25-.6-.5-.82-.25-.19-.56-.29-.87-.29-.63-.04-1.18.44-1.22,1.08,0,.02,0,.04,0,.06.07.52.42.97.9,1.17.47.26.86.45,1.28.7.66.31,1.09.97,1.11,1.7-.03.61-.35,1.17-.87,1.49-.49.29-1.05.44-1.62.45-.64.04-1.28-.12-1.84-.45-.09-.07-.15-.19-.16-.31-.01-.17-.13-.87-.13-1.09,0-.28.1-.39.2-.39.13,0,.17.16.23.32.09.24.21.47.33.68.34.5.91.81,1.52.83.62.05,1.16-.41,1.21-1.02,0-.02,0-.04,0-.06,0-.57-.31-.87-.85-1.21-.44-.26-.83-.47-1.15-.67-.68-.35-1.13-1.02-1.19-1.78,0-1.09.9-1.9,2.36-1.9.53.02,1.05.1,1.56.23Z"/>
      <path id="Path_87" data-name="Path 87" class="cls-1" d="m120.06.71c.12.01,1.14.04,1.56.04.47,0,.94-.03,1.41-.09.1-.01.32.09.32.16,0,.1-.19.23-.36.26-.7.2-.76.32-.79.85-.03.32-.03,1.06-.03,2.01,0,.83,0,1.57.01,1.88.03.83.13.96.82,1.12.17.04.33.16.33.29,0,.1-.15.13-.29.13-.41,0-.8-.04-1.43-.04-.42,0-1.19.07-1.47.07-.22,0-.35-.06-.35-.16,0-.13.22-.23.35-.28.7-.17.83-.34.86-.89.01-.26.03-.71.03-1.2,0-1.53,0-2.55-.01-2.78-.04-.63-.29-.82-.86-.98-.26-.09-.31-.19-.31-.28,0-.06.04-.14.21-.13Z"/>
      <path id="Path_88" data-name="Path 88" class="cls-1" d="m129.72.75c1.65,0,1.78-.1,2.14-.34.06-.03.22.04.22.22,0,.47,0,.94.04,1.41,0,.2-.13.32-.2.32-.1,0-.19-.1-.23-.26-.26-.76-.5-.8-.8-.82-.53-.01-1.06,0-1.59.04-.06,0-.1.13-.12.2-.03.22-.03,1.84-.03,3.32-.03.51,0,1.03.1,1.53.09.34.22.39.82.55.26.06.36.15.36.25s-.2.19-.39.19c-.61,0-.76-.06-1.46-.06-.38,0-1.17.07-1.53.07-.2,0-.36-.09-.36-.2s.22-.19.41-.23c.82-.2.83-.38.86-.95.04-1.28.09-2.8.09-4.49,0-.03-.06-.16-.15-.17-.49-.07-.98-.1-1.47-.09-.28.03-.48.16-.73.55-.17.26-.22.39-.34.39s-.17-.17-.17-.29c.01-.28.17-.96.17-1.31,0-.13.1-.23.22-.26.1,0,.2.12.26.17.13.12.44.23,1.97.23h1.91Z"/>
      <path id="Path_89" data-name="Path 89" class="cls-1" d="m133.87.68c.29,0,1.01.07,1.44.07.5,0,.71-.04,1.02-.04.17,0,.34.07.34.16,0,.12-.15.22-.32.26-.42.1-.39.31-.29.54.12.31.76,1.43,1.22,2.26.04.04.1.04.15,0,.07-.13,1.06-1.85,1.28-2.33.15-.29.1-.36-.32-.5-.26-.07-.31-.15-.31-.23s.13-.16.35-.16c.36,0,.39.04.82.04.23,0,1.06-.06,1.15-.06.13,0,.35.04.35.15,0,.16-.23.25-.35.26-.69.12-.8.31-1.25.87-.54.74-1.01,1.52-1.43,2.33-.09.17-.12.35-.12.54-.01.32-.01,1.17.01,1.5.04.35.22.48.7.6.23.06.41.1.41.23,0,.1-.12.19-.38.19-.55,0-.54-.04-1.09-.04-.41,0-1.15.07-1.68.07-.25,0-.38-.04-.38-.19,0-.06.1-.16.29-.2.76-.16.92-.34.93-.58.01-.28.04-1.17.04-1.4.02-.2-.02-.41-.1-.6-.4-.84-.86-1.64-1.38-2.4-.41-.61-.54-.79-1.14-.95-.22-.06-.32-.15-.32-.25,0-.06.13-.15.35-.15Z"/>
    </g>
  </g>
  <path id="Path_90" data-name="Path 90" class="cls-1" d="m24.04,5.47c-2.55,0-4.63,2.07-4.63,4.62,0,2.14,1.46,4,3.54,4.5.35.01.69.02,1.02.03.04,0,.07,0,.11,0,.25,0,.49.02.73.03,2.52-.43,4.22-2.81,3.79-5.33-.38-2.23-2.3-3.86-4.56-3.86h0Zm2.67,6.87c-.14.53-.34,1.03-.59,1.51h-4.16c-.25-.48-.45-.99-.59-1.51-.04-.15-.41-1.51.08-2.38.28-.47.45-1.01.47-1.56v-.93h-.15v.2s-.11.06-.17.06c-.24-.07-.38-.31-.32-.55.04-.15.16-.27.32-.32.06,0,.12.02.17.06v.2h.15v-.85h.84v.85h.46v-.03c0-.07.05-.12.12-.12s.12.05.12.12v.03h.46v-.03c0-.07.05-.12.12-.12s.12.05.12.12v.03h.46v-.03c0-.07.05-.12.12-.12s.12.05.12.12v.03h.46v-.85h.84v.85h.15v-.2s.11-.06.17-.06c.24.07.38.31.32.55-.04.15-.16.27-.32.32-.06,0-.12-.02-.17-.06v-.2h-.15v.93c.03.55.19,1.09.47,1.56.48.88.11,2.23.07,2.38Zm-10.07-7.76s.06.09.1.13c.04.04.08.07.13.1.05.03.1.05.15.06.06.01.12.02.18.02.06,0,.13,0,.19-.02.06-.01.12-.03.18-.06.06-.02.11-.06.16-.09.05-.04.1-.08.15-.13.04-.05.08-.1.12-.16.03-.05.05-.11.07-.17.01-.06.02-.13.02-.19,0-.05,0-.11-.02-.16-.01-.05-.03-.1-.05-.14-.02-.05-.05-.09-.09-.13-.04-.04-.08-.09-.12-.12-.06-.04-.11-.08-.16-.12,0,0,.12-.09.16-.14.04-.04.08-.09.11-.15.03-.05.05-.1.07-.15.02-.06.02-.11.02-.17,0-.06,0-.12-.03-.17-.02-.05-.04-.1-.07-.14-.03-.05-.07-.08-.12-.12-.05-.03-.1-.06-.16-.07-.06-.02-.13-.03-.19-.03-.07,0-.14.01-.21.03-.06.02-.13.04-.19.07-.06.03-.11.07-.15.12-.09.09-.15.2-.19.32-.02.06-.03.12-.03.19,0,.06,0,.12.02.18.02.06.04.11.07.16.03.05.07.1.12.15.05.05.16.12.16.13,0,0-.12.07-.17.12-.05.04-.09.08-.13.12-.04.04-.07.08-.09.13-.03.05-.05.09-.06.14-.01.05-.02.11-.02.16,0,.06,0,.11.02.17.01.05.04.11.06.16Zm.44-1.98s.05-.08.09-.11c.04-.03.09-.04.13-.04.06,0,.11.02.15.05.05.04.08.09.1.15.03.07.04.14.04.21,0,.05,0,.11-.01.16,0,.05-.03.09-.05.13-.02.04-.07.11-.09.12-.03,0-.13-.09-.18-.13-.05-.04-.09-.08-.13-.12-.03-.04-.06-.08-.08-.13-.02-.04-.03-.09-.03-.14,0-.05.01-.11.04-.16h0Zm-.07,1.39c.02-.06.04-.11.07-.16.03-.05.09-.13.12-.14.04,0,.14.1.2.14.05.04.1.09.14.14.04.04.06.09.08.14.02.05.03.1.03.16,0,.07-.01.14-.04.21-.03.06-.07.1-.12.14-.05.03-.1.05-.16.05-.05,0-.1-.01-.14-.03-.04-.02-.08-.06-.11-.1-.03-.05-.06-.1-.07-.16-.02-.07-.03-.14-.03-.21,0-.06,0-.13.03-.19h0Zm-4.76,3.37c-.1,0-.21.02-.3.06-.21.09-.44.15-.67.17-.28.03-.57.02-.86-.02v4.12c.27.04.54.05.81.03.62-.07.53-.23,1.01-.23.11,0,.22.01.32.05v-4.1c-.06-.03-.13-.05-.21-.06-.04,0-.07-.01-.11-.01h0Zm6.67-2.55c.07-.02.13-.04.19-.07.06-.03.11-.06.17-.09.05-.03.1-.07.14-.11.04-.04.08-.08.12-.12.04-.04.07-.09.09-.14.03-.05.05-.1.07-.15.02-.05.03-.11.04-.16,0-.06.01-.11.01-.17,0-.06,0-.13-.02-.19-.01-.06-.03-.11-.05-.16-.02-.05-.05-.09-.08-.13-.03-.04-.07-.08-.12-.1-.05-.03-.1-.06-.15-.07-.06-.02-.12-.04-.18-.05-.07-.01-.14-.02-.22-.02-.05,0-.1,0-.15,0,.01-.07.02-.12.03-.17s.01-.1.02-.17h.68s.07,0,.11.02c.04.02.07.06.09.1h.03c0-.08,0-.14,0-.19s0-.08,0-.1v-.15s0-.09,0-.14c-.05,0-.09,0-.14,0-.05,0-.1,0-.15,0s-.1,0-.15,0h-.34c-.06,0-.11,0-.16,0-.04,0-.09-.01-.13-.02-.01.06-.02.11-.02.17,0,.06-.02.12-.03.18s-.02.12-.03.19-.02.13-.03.2-.02.14-.03.21c-.02.07-.03.15-.03.22.05,0,.09,0,.14-.01.04,0,.08,0,.1,0,.06,0,.13,0,.19.02.05.01.1.03.15.06.09.05.15.13.18.23.02.05.02.11.02.16,0,.05,0,.11-.02.16-.01.05-.03.1-.05.15-.02.05-.05.09-.09.14-.04.04-.08.08-.12.12-.05.04-.1.07-.15.1-.06.03-.12.06-.18.08-.07.02-.14.04-.21.06v.19c.08,0,.16-.01.24-.03.07-.01.14-.03.21-.05h0Zm1.3-.88c.02.06.04.13.07.19.02.06.05.11.09.16.03.05.07.09.11.13.04.04.08.07.13.09.05.03.09.04.15.06.05.01.11.02.16.02.05,0,.1,0,.16-.02.05-.01.1-.04.14-.06.05-.03.09-.06.13-.1.04-.04.08-.09.11-.14.04-.06.07-.11.09-.17.03-.07.05-.14.07-.21.02-.08.03-.16.04-.24,0-.09.01-.18.01-.26,0-.08,0-.16-.01-.23,0-.07-.02-.14-.04-.21-.02-.06-.04-.12-.07-.18-.03-.05-.06-.11-.09-.15-.03-.04-.07-.09-.11-.12-.04-.04-.08-.07-.13-.09-.05-.02-.1-.04-.15-.06-.05-.01-.11-.02-.16-.02-.05,0-.1,0-.14.02-.05.01-.09.03-.14.06-.05.03-.09.06-.12.09-.04.04-.08.08-.11.13-.04.05-.07.11-.09.17-.02.05-.05.11-.06.17-.02.06-.03.11-.05.17-.01.06-.02.12-.03.18,0,.06,0,.13,0,.19,0,.08,0,.16.01.24,0,.07.02.14.04.21h0Zm.42-.95c0-.08.01-.15.03-.22.01-.06.03-.11.05-.16.02-.04.04-.07.08-.09.05-.04.13-.04.18,0,.03.02.05.04.07.07.02.04.05.07.06.12.02.05.04.11.05.16.01.06.03.13.04.21s.02.16.02.25,0,.19,0,.3,0,.2,0,.29c0,.08-.01.15-.03.22,0,.05-.03.11-.05.16-.02.04-.04.07-.08.09-.06.04-.13.04-.19,0-.03-.02-.05-.04-.07-.07-.02-.04-.04-.07-.06-.12-.02-.05-.04-.11-.05-.16-.01-.06-.02-.13-.03-.21s-.02-.16-.02-.25,0-.19,0-.3,0-.21,0-.29h0Zm-13.06,7.13c0,1.96,1.11,3.75,2.86,4.63h.03c.22-.01.45-.03.68-.04-2.54-.89-3.87-3.68-2.98-6.22.89-2.54,3.68-3.87,6.22-2.98,2.54.89,3.87,3.68,2.98,6.22-.45,1.28-1.41,2.31-2.65,2.85.23,0,.47,0,.71-.01,2.46-1.47,3.27-4.65,1.8-7.12s-4.65-3.27-7.11-1.8c-1.57.94-2.54,2.63-2.53,4.47h0Zm-2.05,5.03c.14-.02.29-.03.44-.05V4.88l-.51-1.13c1.83-.26,5.18-.66,9.06-.85v-.44c-4.43.21-8.19.71-9.7.93.28.63.71,1.58.71,1.58v10.17ZM15.38,4.53h.14s.12,0,.12,0h.12s.09,0,.14,0h.16s.18.02.18.02v-.07c-.07-.03-.12-.06-.17-.08-.04-.02-.08-.04-.12-.07-.02-.01-.04-.03-.05-.05-.01-.03-.02-.06-.02-.09,0-.05,0-.12,0-.2s0-.18,0-.3v-1.15c0-.05,0-.1,0-.14,0-.03,0-.07,0-.1,0,0-.1.02-.15.03s-.11.02-.16.02-.11.01-.16.02-.11.01-.17.01-.12,0-.18,0v.05c.07.02.13.04.17.06.04.01.08.03.12.05.02.01.04.03.05.05,0,.03.02.06.02.1,0,.05,0,.12,0,.2s0,.18,0,.3v.82c0,.08,0,.15,0,.2,0,.03,0,.06-.02.09-.01.02-.03.04-.05.05-.04.03-.07.05-.12.07-.05.02-.11.05-.17.08v.07h.17s.16-.02.16-.02Zm-.86-1.35c-3.17.15-6.01.45-8.07.72l-.59.08.24.54s.09.2.14.31v10.24c.14-.01.29-.03.44-.04V4.73l-.18-.4c1.9-.25,4.77-.56,8.02-.72v-.44Zm-.25,4.42c-.23-.02-.46-.08-.67-.17-.09-.05-.2-.07-.3-.06-.04,0-.07,0-.11,0-.07,0-.14.03-.2.06v4.1c.1-.03.21-.05.32-.05.48,0,.39.16,1.01.23.27.03.54.02.81-.03v-4.12c-.28.04-.57.05-.85.02h0Zm-1.5-2.12c-2.55,0-4.63,2.07-4.63,4.63,0,2.26,1.63,4.19,3.86,4.56.24-.01.49-.02.74-.03h.09c.34-.02.68-.03,1.03-.04,2.48-.6,4.01-3.11,3.4-5.59-.5-2.07-2.36-3.53-4.49-3.53Zm3.79,5.62c.09,0,.17.09.17.19v.33c0,.09-.06.16-.15.17,0,0,0,0-.01,0l-.31-.02v.88c0,.09-.06.16-.15.17,0,0,0,0-.01,0l-2.73-.15c-.39.07-.78.07-1.17,0l-2.73.15c-.09,0-.16-.07-.17-.15,0,0,0,0,0-.01v-.89l-.32.02c-.09,0-.16-.07-.17-.16,0,0,0,0,0-.01v-.33c0-.1.07-.18.17-.19l.32-.02v-1.85l-.32.02c-.09,0-.16-.07-.17-.16,0,0,0,0,0-.01v-.33c0-.1.07-.18.17-.18l.32-.02v-.95c0-.1.07-.18.17-.19l.41-.02c-.05.11-.12.21-.19.31v4.56c.13-.2.24-.42.33-.64v-4.53c.4.11.81.15,1.22.12.62-.07.53-.23,1.01-.23.32.19.73.19,1.05,0,.48,0,.39.16,1.01.23.41.03.82,0,1.22-.12v4.53c.09.23.2.44.35.64v-4.56c-.09-.1-.15-.2-.21-.31l.42.02c.09,0,.17.09.17.19v.95l.31.02c.09,0,.17.09.17.18v.33c0,.09-.06.16-.15.17,0,0,0,0-.01,0l-.31-.02v1.85l.31.02Zm7.6,1.73c.15,0,.31-.02.46-.05v-.78c-.15-.03-.31-.04-.46-.05v.88Zm-1.39-3.23c-.26.19-.42.48-.43.8.05.5.4.93.89,1.07v-3.99h-.46v2.12Zm.05,2.79c0,.13.16.25.4.33v-.65c-.24.08-.4.19-.4.32h0Zm3.55,2.36c2.57-1.29,3.6-4.41,2.32-6.97-1.29-2.57-4.41-3.6-6.97-2.32-2.57,1.29-3.6,4.41-2.32,6.97.45.89,1.14,1.63,1.99,2.14h0c.24,0,.47,0,.7.01-2.47-1.07-3.61-3.95-2.53-6.42,1.07-2.47,3.95-3.61,6.42-2.54,2.47,1.07,3.61,3.95,2.53,6.42-.54,1.25-1.58,2.21-2.86,2.66l.64.03h.07Zm-1.05-5.15v-2.12h-.46v3.99c.49-.14.84-.56.89-1.07-.01-.32-.17-.62-.42-.8h0Zm5.53-4.71v10.21l.19.02c.08,0,.17.02.25.03V4.98l.71-1.58c-1.51-.22-5.27-.72-9.7-.93v.44c3.88.18,7.23.59,9.05.85-.21.47-.51,1.13-.51,1.13h0Zm-.71-.15v10.29h.15s.29.04.29.04V4.83l.38-.85-.59-.08c-2.06-.27-4.91-.57-8.08-.72v.44c3.24.16,6.12.47,8.02.72-.06.12-.18.4-.18.4h0Zm-5.97,6.88c.16,0,.31-.03.46-.07v-4.07h-.46v4.13Zm.7.44v.66c.26-.08.42-.2.42-.33s-.17-.25-.43-.33h0Zm-1.39.72c.15.03.31.05.46.05v-.87c-.15,0-.31.02-.46.05v.77ZM4.53,21.58l-.41.05-.11-.4c-.39-1.41-.6-2.86-.63-4.32-.77.1-1.42.2-1.96.28.23.6,1.13,2.44,1.13,2.44-.19.92-.3,1.86-.33,2.81.75-.1,1.83-.22,3.14-.35-.07-.2-.12-.39-.18-.58-.22.03-.44.05-.64.08Zm18.93-10.04c.15.04.31.06.46.07v-4.13h-.46v4.07Zm3.36,5.44c.03-.52-.32-.75-1.06-.79-.1,0-.2,0-.3,0-.04.52-.08.99-.1,1.43l.38.02c.7.04,1.05-.17,1.08-.66Zm-8.42,13.02c2.56,0,4.63-2.07,4.63-4.63,0-2.18-1.52-4.06-3.65-4.52-.32,0-.64,0-.97,0s-.65,0-.97,0c-2.5.54-4.09,3-3.56,5.49.46,2.14,2.34,3.66,4.53,3.66Zm.9-1.33c-.2.13-.43.21-.67.21,0,.04,0,.08,0,.1,0,.15-.04.45-.22.55-.08-.03-.12-.03-.17-.08-.08-.08-.05-.19-.07-.28-.02-.11-.03-.22-.03-.32-.15-.03-.29-.08-.42-.15-.28-.16-.41-.32-.43-.54-.03-.29.18-.51.26-.47.13.05-.11.22,0,.45.12.19.33.31.56.32,0-.04,0-.08-.01-.12,0-.17-.03-.19-.04-.38-.01-.14.02-.28.09-.4h0c.05-.1,0-.24-.01-.35-.02-.15-.05-.29-.06-.44,0-.02,0-.04,0-.06,0-.07-.02-.13-.03-.2.17-.01.34-.01.51,0h.27s.04.06.05.1c.02.11.01.23,0,.35-.02.12-.04.22-.05.27-.02.19-.03.33-.05.45-.01.16-.03.3-.04.53,0,.07-.01.14-.02.2.13-.04.25-.1.36-.18.14-.1.17-.29.08-.43,0,0,0-.01-.01-.02h0s-.07-.06-.11-.08l.05-.45.04-.21s.08.02.12.03c.32.07.57.33.6.66.04.38-.14.76-.48.95h0Zm1.15-3.23c-.12.3-.35.54-.64.67-.14.06-.28.11-.43.13-.17.03-.34.04-.51.03-.1,0-.2,0-.3,0-.27-.02-.54-.01-.81.03-.14.04-.23.1-.21.2.03.06.08.1.14.12.03.01.05.03.09.04.01,0,.03.01.04.02v.09c0,.09.02.19.04.28l.03.17.02.11s.01.07.01.1c-.05-.01-.1-.02-.16-.04-.04-.01-.08-.02-.12-.03l-.1-.03c-.51-.18-1-.53-.81-1.12.16-.39.52-.65.93-.7l.19-.02c.19-.02.38-.04.59-.05.17,0,.33-.01.48-.02.17,0,.33-.02.49-.07.17-.11.22-.35.11-.52-.02-.03-.04-.05-.06-.07-.04-.05-.09-.08-.15-.1-.04,0-.08-.01-.13,0,0-.04.01-.08.01-.12,0-.03,0-.06-.01-.09-.03-.08-.08-.15-.14-.21,0,0-.03-.03-.03-.04,0-.02,0-.04,0-.05,0-.06,0-.12.02-.18v-.05c.01-.07.02-.14.02-.21.07,0,.15,0,.22,0,.04,0,.07,0,.1.01.42.04.79.29,1,.66.2.33.24.73.1,1.09h0Zm-1.64-1.11c.06.05.1.11.14.18,0,.07-.01.15-.03.22-.03.11-.06.23-.06.26,0,.06-.01.13-.02.2h-.42c-.13.02-.26.03-.38.04,0-.05,0-.09-.01-.12v-.03c0-.2-.04-.4-.1-.6-.03-.12-.07-.23-.09-.35,0-.03,0-.07,0-.1.02-.06.06-.12.1-.17.07-.18.11-.37.09-.56.11,0,.22,0,.34.02.1.03.19.06.29.1l.15.06v.15c0,.08,0,.16-.02.24-.02.14-.06.36.02.46h0Zm-1.05-2.76s.42-.11.63-.19l.51-.06c.06,0,.12.04.15.1.09.17-.12.53-.16.71,0,.01,0,.02,0,.03-.1,0-.2,0-.3,0h-.08q-.07,0-.26-.03l-.37-.05c-.02-.07-.04-.14-.06-.19-.04-.11-.11-.19-.06-.3h0Zm-1.28,1.07c.37-.28.83-.4,1.29-.35h.06c.68.09.53.08.73.09.13.01.26.01.4,0,.04,0,.09-.01.13-.03.2-.09.43-.12.65-.09.28.06.24.09.31.12.09.05.18.09.27.12.06.02.4.16.45.19.04.03.06.07.06.12.01.11,0,.21-.06.31-.33.12-.67.2-1.01.22-.25.01-.51,0-.76-.06-.02,0-.04-.01-.07-.02-.17-.07-.34-.13-.52-.19-.18-.03-.35-.03-.53-.02-.15,0-.29.04-.43.1-.28.12-.41.24-.47.49-.07.32.24.49.41.51h.02c.06,0,.13,0,.19-.01v.03c.02.11.05.22.08.33v.04c.07.17.1.35.11.53-.04,0-.07,0-.11.01-.1,0-.2.01-.3.01-.39.03-.78-.08-1.09-.31-.17-.15-.3-.35-.36-.58-.17-.58.05-1.21.55-1.56h0Zm3.12.11c.07.03.16,0,.2-.07.05.02.09.04.09.04-.03-.09-.1-.16-.2-.2-.01,0-.03-.01-.04-.01-.1-.02-.19.01-.2.08s.05.14.15.16h0Zm-10.56,1.99c-.65-1.1-1.19-2.26-1.59-3.47l-.24.02-.21.02c.42,1.28.98,2.5,1.67,3.66,2.22,3.65,5.53,6.51,9.45,8.19l.07.03.2.1.28-.12h0c3.93-1.68,7.23-4.55,9.46-8.19.69-1.15,1.25-2.38,1.66-3.66-.15-.01-.3-.03-.45-.04-.4,1.21-.94,2.37-1.59,3.47-2.18,3.57-5.41,6.37-9.26,8.02,0,0-.05.02-.09.04-.02-.01-.1-.04-.1-.04h0c-3.84-1.64-7.08-4.44-9.26-8.01h0Zm23.9-7.93v-.97c-4.82-.61-9.69-.89-14.55-.82-4.86-.06-9.73.21-14.55.82v.97c.02,1.45.23,2.9.62,4.3,4.62-.55,9.28-.8,13.94-.74,4.66-.05,9.31.2,13.94.74.39-1.4.59-2.85.61-4.3h0Zm-23.24,2.91c-.25.02-.54.06-.89.12v-.09c.47-.16.55-.17.53-.4-.13-.9-.31-1.79-.54-2.66-.37.98-.73,2.06-1.08,3.24h-.07c-.58-1.15-1.12-2.15-1.61-3.03-.03,1.51-.01,2.39,0,2.65.02.29.07.28.55.38v.09c-.36,0-.6,0-.71,0-.24.02-.47.06-.7.11v-.09c.32-.12.5-.2.52-.35.04-.22.06-.44.07-.67.06-1.35.03-2.07.03-2.15-.02-.26-.07-.28-.5-.36v-.09c.13,0,.25,0,.37,0,.2-.02.41-.04.65-.08.41.82.86,1.69,1.39,2.62.37-.96.7-1.9,1-2.82.2,0,.38,0,.52-.02s.34-.04.54-.07v.09c-.42.15-.51.18-.49.39.02.24.12.69.26,1.34.09.5.21.99.36,1.48.05.13.22.17.53.25v.09c-.35,0-.6,0-.74,0h0Zm2.28-.11c-.37.02-.74.05-1.11.09v-.09c.2-.04.38-.14.53-.28.02-1-.03-2-.15-3-.16-.12-.36-.2-.56-.22v-.12c.2.02.42.02.63,0,.21,0,.43-.03.66-.04.25-.01.51-.02.75-.03.28-.01.56-.04.83-.08l.05.87h-.07c-.04-.2-.12-.38-.25-.54-.25-.04-.5-.05-.75-.02-.23.01-.47.01-.74.02,0,.28,0,.74.04,1.42l.47-.02c.28,0,.56-.02.83-.08.11-.15.19-.33.22-.51h.08c-.01.2-.02.42,0,.62,0,.14.03.37.06.7h-.08c-.04-.19-.13-.38-.26-.53-.28-.03-.55-.03-.83,0l-.47.02c0,.12.01.24.02.35.03.54.06.95.09,1.22.27,0,.5,0,.69,0,.28,0,.56-.04.82-.11.12-.19.2-.41.22-.63h.09s.02.92.02.92c-.89,0-1.5.04-1.82.05h0Zm5.33-.14c-.87,0-1.47,0-1.8,0-.29,0-.6.02-.94.06v-.09c.2-.04.39-.13.54-.27.05-.5.06-1,.02-1.49.01-.5-.01-1.01-.09-1.5-.16-.13-.35-.21-.55-.24v-.09c.28.03.56.04.84.03.22,0,.5-.03.83-.07v.09c-.2.04-.39.13-.54.26-.05.5-.05,1-.02,1.51.01.45.03.98.07,1.59h.51c.28.01.55-.02.82-.09.14-.19.23-.4.28-.63h.09l-.05.93Zm2.27-3.59c-.2.03-.39.12-.55.25-.06.5-.08,1-.06,1.5-.03.5-.01,1,.05,1.49.15.13.34.22.55.26v.09c-.28-.03-.55-.05-.83-.06-.28,0-.56.02-.84.05v-.09c.2-.03.39-.12.55-.25.06-.5.08-.99.06-1.49.03-.5.01-1.01-.05-1.5-.16-.13-.34-.22-.55-.25v-.09c.33.04.61.05.84.05.28,0,.55-.02.83-.05v.09Zm3.69,3.16c-.68.72-1.82.75-2.55.07-.03-.03-.05-.05-.08-.08-.34-.39-.51-.9-.48-1.42,0-.47.17-.93.48-1.29.68-.72,1.81-.76,2.54-.09.03.03.06.06.09.09.34.4.52.92.49,1.44,0,.47-.18.93-.48,1.28h0Zm8.36,1.11c-.37-.07-.64-.11-.82-.12-.24-.02-.51-.02-.84-.02v-.09c.38-.05.57-.12.58-.19-.04-.32-.13-.64-.24-.94l-1.43-.12c-.17.29-.3.59-.4.91,0,.09.15.16.47.24v.1c-.22-.05-.44-.09-.66-.11-.13-.01-.32-.01-.58,0h0s-.06,0-.06,0h0c-.12-.01-.22-.03-.33-.04-.13,0-.26,0-.39,0-.36-.69-.72-1.32-1.08-1.91-.06,0-.13-.02-.2-.02-.08,0-.19-.01-.32-.01,0,.13-.02.25-.02.36-.04.59-.04.94-.03,1.04,0,.18.16.24.55.38v.09c-.34-.05-.61-.09-.84-.1-.17-.01-.45,0-.83,0v-.09c.21-.02.4-.1.57-.22.09-.49.14-.99.14-1.49.06-.5.07-1,.04-1.51-.15-.14-.33-.24-.53-.28v-.09c.17.03.33.05.5.06.48.03.89.01,1.22.03.88.05,1.3.38,1.27.93-.03.43-.35.72-.97.86.65,1.19.92,1.86,1.28,1.9.24-.06.39-.11.46-.23.12-.2.74-1.3,1.8-3.34h.1c.61,2.08.98,3.27,1.11,3.58.06.16.22.23.5.33v.09Zm-9.65-4.2c-.76-.02-1.22.51-1.25,1.52-.04,1.2.42,1.89,1.2,1.92.77.02,1.22-.51,1.25-1.52.04-1.2-.42-1.9-1.2-1.92h0Zm7,2.49l1.26.11c-.13-.49-.28-1.03-.46-1.6-.25.44-.51.94-.79,1.5h0Zm1.07,2.88c-.42,1.32-1,2.58-1.71,3.77-2.25,3.69-5.6,6.59-9.57,8.29l-.39.18c-.17-.07-.39-.17-.39-.17-3.97-1.7-7.32-4.6-9.57-8.29-.71-1.19-1.28-2.45-1.71-3.77l-.23.02-.22.02c.44,1.38,1.04,2.71,1.78,3.95,2.3,3.77,5.71,6.73,9.77,8.47,0,0,.34.15.57.26.24-.11.57-.26.57-.26,4.06-1.74,7.47-4.7,9.77-8.47.74-1.24,1.34-2.57,1.78-3.95l-.35-.03h-.11Zm6.56-4.88l-1.5-.22-1.27-.18v-1.01l-.78-.12-.26-.04V5.31c.07-.16,1.39-3.1,1.39-3.1l-1.26-.21c-4.82-.74-9.68-1.13-14.55-1.16-4.87.04-9.74.42-14.56,1.16h0l-1.26.21,1.39,3.1v9.59l-.26.04-.78.12v1.01l-2.78.39.4,1.06c.2.53.83,1.84,1.04,2.26-.16.87-.26,1.75-.3,2.63l-.04,1.08,1.07-.15,2.91-.32c.41,1.07.91,2.11,1.5,3.1,2.46,4.04,6.11,7.22,10.46,9.08l1.2.55,1.2-.55c4.34-1.87,8-5.04,10.45-9.08.58-.99,1.09-2.03,1.5-3.1l2.91.32,1.07.15-.04-1.08c-.03-.88-.13-1.76-.3-2.63.4-.83.87-1.81,1.04-2.26l.4-1.06Zm-.8.91c-.2.52-.87,1.91-1.08,2.35.17.9.28,1.8.31,2.71l.02.57-.56-.08c-.81-.11-1.93-.23-3.24-.36h0c-.43,1.16-.96,2.28-1.6,3.34-2.41,3.96-6,7.08-10.26,8.91l-1.03.47-.23-.1-.8-.36c-4.26-1.83-7.85-4.95-10.26-8.91-.63-1.06-1.17-2.18-1.59-3.34-1.31.13-2.43.26-3.24.36l-.56.08.02-.57c.03-.91.14-1.82.31-2.71-.21-.44-.89-1.82-1.08-2.35l-.21-.56.97-.14c.47-.07,1.02-.15,1.64-.23v-1.01l.41-.06c.2-.03.41-.06.63-.09V5.21l-1.2-2.68.71-.12c4.79-.74,9.64-1.12,14.49-1.16,4.85.03,9.69.42,14.48,1.16l.71.12-1.2,2.68v10.06c.22.03.43.06.63.09l.41.06v1.01c.62.08,1.17.16,1.64.23l.97.14-.21.55Zm-3.04,3.87l-.11.4-.41-.05c-.2-.03-.42-.05-.64-.08-.06.19-.12.38-.18.58h0c1.31.13,2.39.25,3.14.35-.03-.94-.14-1.88-.33-2.81,0,0,.9-1.85,1.13-2.44-.54-.08-1.19-.17-1.96-.28-.03,1.46-.24,2.91-.63,4.32h0Zm-19.59,4.15c0,2.87,2.32,5.2,5.19,5.2,2.87,0,5.19-2.32,5.2-5.19,0-1.87-1-3.59-2.62-4.52-.24,0-.49,0-.73,0,2.5,1.01,3.7,3.86,2.68,6.36-1.01,2.5-3.86,3.7-6.36,2.68-2.5-1.01-3.7-3.86-2.68-6.36.5-1.22,1.46-2.19,2.68-2.68-.25,0-.49,0-.73,0-1.62.92-2.62,2.65-2.62,4.51h0Z"/>
</svg>